<?xml version="1.0" encoding="UTF-8" standalone="no"?>
<!DOCTYPE svg PUBLIC "-//W3C//DTD SVG 1.1//EN"
 "http://www.w3.org/Graphics/SVG/1.1/DTD/svg11.dtd">
<!-- Generated by graphviz version 5.0.0 (20220707.1540)
 -->
<!-- Title: dependencies Pages: 1 -->
<svg width="308pt" height="196pt"
 viewBox="0.00 0.00 308.00 196.20" xmlns="http://www.w3.org/2000/svg" xmlns:xlink="http://www.w3.org/1999/xlink">
<g id="graph0" class="graph" transform="scale(1 1) rotate(0) translate(4 192.2)">
<title>dependencies</title>
<polygon fill="white" stroke="transparent" points="-4,4 -4,-192.2 304,-192.2 304,4 -4,4"/>
<text text-anchor="middle" x="150" y="-8.2" font-family="sans-serif" font-size="14.00">dependencies</text>
<g id="clust1" class="cluster">
<title>cluster_SharedModule</title>
<polygon fill="none" stroke="black" stroke-dasharray="1,5" points="8,-32.8 8,-180.2 292,-180.2 292,-32.8 8,-32.8"/>
</g>
<g id="clust4" class="cluster">
<title>cluster_SharedModule_exports</title>
<polygon fill="none" stroke="black" points="16,-97.8 16,-172.2 284,-172.2 284,-97.8 16,-97.8"/>
</g>
<!-- {
 &#160;&#160;&#160;provide: , useClass: VRMHttpProvider,
}  -->
<g id="node1" class="node">
<title>{
 &#160;&#160;&#160;provide: , useClass: VRMHttpProvider,
} </title>
<polygon fill="#fb8072" stroke="black" points="276.04,-164.4 23.96,-164.4 23.96,-105.6 276.04,-105.6 276.04,-164.4"/>
<text text-anchor="middle" x="150" y="-147.6" font-family="Times,serif" font-size="14.00">{</text>
<text text-anchor="middle" x="150" y="-130.8" font-family="Times,serif" font-size="14.00"> &#160;&#160;&#160;provide: , useClass: VRMHttpProvider,</text>
<text text-anchor="middle" x="150" y="-114" font-family="Times,serif" font-size="14.00">} </text>
</g>
<!-- SharedModule -->
<g id="node2" class="node">
<title>SharedModule</title>
<polygon fill="#8dd3c7" stroke="black" points="199.43,-76.8 196.43,-80.8 175.43,-80.8 172.43,-76.8 100.57,-76.8 100.57,-40.8 199.43,-40.8 199.43,-76.8"/>
<text text-anchor="middle" x="150" y="-54.6" font-family="Times,serif" font-size="14.00">SharedModule</text>
</g>
<!-- SharedModule&#45;&gt;{
 &#160;&#160;&#160;provide: , useClass: VRMHttpProvider,
}  -->
<g id="edge1" class="edge">
<title>SharedModule&#45;&gt;{
 &#160;&#160;&#160;provide: , useClass: VRMHttpProvider,
} </title>
<path fill="none" stroke="black" stroke-dasharray="5,2" d="M150,-76.86C150,-76.86 150,-95.75 150,-95.75"/>
<polygon fill="black" stroke="black" points="146.5,-95.75 150,-105.75 153.5,-95.75 146.5,-95.75"/>
</g>
</g>
</svg>
