<?xml version="1.0" encoding="UTF-8" standalone="no"?>
<!DOCTYPE svg PUBLIC "-//W3C//DTD SVG 1.1//EN"
 "http://www.w3.org/Graphics/SVG/1.1/DTD/svg11.dtd">
<!-- Generated by graphviz version 5.0.0 (20220707.1540)
 -->
<!-- Title: dependencies Pages: 1 -->
<svg width="8032pt" height="174pt"
 viewBox="0.00 0.00 8032.00 173.80" xmlns="http://www.w3.org/2000/svg" xmlns:xlink="http://www.w3.org/1999/xlink">
<g id="graph0" class="graph" transform="scale(1 1) rotate(0) translate(4 169.8)">
<title>dependencies</title>
<polygon fill="white" stroke="transparent" points="-4,4 -4,-169.8 8028,-169.8 8028,4 -4,4"/>
<text text-anchor="middle" x="4012" y="-8.2" font-family="sans-serif" font-size="14.00">dependencies</text>
<g id="clust1" class="cluster">
<title>cluster_GraphModule</title>
<polygon fill="none" stroke="black" stroke-dasharray="1,5" points="8,-32.8 8,-157.8 8016,-157.8 8016,-32.8 8,-32.8"/>
</g>
<g id="clust6" class="cluster">
<title>cluster_GraphModule_providers</title>
<polygon fill="none" stroke="black" points="138,-40.8 138,-92.8 8008,-92.8 8008,-40.8 138,-40.8"/>
</g>
<g id="clust3" class="cluster">
<title>cluster_GraphModule_imports</title>
<polygon fill="none" stroke="black" points="16,-40.8 16,-92.8 130,-92.8 130,-40.8 16,-40.8"/>
</g>
<!-- SharedModule -->
<g id="node1" class="node">
<title>SharedModule</title>
<polygon fill="#8dd3c7" stroke="black" points="122.43,-84.8 119.43,-88.8 98.43,-88.8 95.43,-84.8 23.57,-84.8 23.57,-48.8 122.43,-48.8 122.43,-84.8"/>
<text text-anchor="middle" x="73" y="-62.6" font-family="Times,serif" font-size="14.00">SharedModule</text>
</g>
<!-- GraphModule -->
<g id="node2" class="node">
<title>GraphModule</title>
<polygon fill="#8dd3c7" stroke="black" points="4465.04,-149.8 4462.04,-153.8 4441.04,-153.8 4438.04,-149.8 4370.96,-149.8 4370.96,-113.8 4465.04,-113.8 4465.04,-149.8"/>
<text text-anchor="middle" x="4418" y="-127.6" font-family="Times,serif" font-size="14.00">GraphModule</text>
</g>
<!-- SharedModule&#45;&gt;GraphModule -->
<g id="edge1" class="edge">
<title>SharedModule&#45;&gt;GraphModule</title>
<path fill="none" stroke="black" d="M73,-85C73,-109.16 73,-148.8 73,-148.8 73,-148.8 4360.68,-148.8 4360.68,-148.8"/>
<polygon fill="black" stroke="black" points="4360.68,-152.3 4370.68,-148.8 4360.68,-145.3 4360.68,-152.3"/>
</g>
<!-- AccesstokensCreateService -->
<g id="node3" class="node">
<title>AccesstokensCreateService</title>
<ellipse fill="#fdb462" stroke="black" cx="7882" cy="-66.8" rx="117.51" ry="18"/>
<text text-anchor="middle" x="7882" y="-62.6" font-family="Times,serif" font-size="14.00">AccesstokensCreateService</text>
</g>
<!-- AccesstokensCreateService&#45;&gt;GraphModule -->
<g id="edge2" class="edge">
<title>AccesstokensCreateService&#45;&gt;GraphModule</title>
<path fill="none" stroke="black" d="M7842.75,-83.98C7842.75,-107.75 7842.75,-147.8 7842.75,-147.8 7842.75,-147.8 4475.11,-147.8 4475.11,-147.8"/>
<polygon fill="black" stroke="black" points="4475.11,-144.3 4465.11,-147.8 4475.11,-151.3 4475.11,-144.3"/>
</g>
<!-- AccesstokensCreateService&#45;&gt;GraphModule -->
<g id="edge3" class="edge">
<title>AccesstokensCreateService&#45;&gt;GraphModule</title>
<path fill="none" stroke="black" d="M7921.25,-83.79C7921.25,-107.81 7921.25,-148.8 7921.25,-148.8 7921.25,-148.8 4475.2,-148.8 4475.2,-148.8"/>
<polygon fill="black" stroke="black" points="4475.2,-145.3 4465.2,-148.8 4475.2,-152.3 4475.2,-145.3"/>
</g>
<!-- AccesstokensListService -->
<g id="node4" class="node">
<title>AccesstokensListService</title>
<ellipse fill="#fdb462" stroke="black" cx="7639" cy="-66.8" rx="107.66" ry="18"/>
<text text-anchor="middle" x="7639" y="-62.6" font-family="Times,serif" font-size="14.00">AccesstokensListService</text>
</g>
<!-- AccesstokensListService&#45;&gt;GraphModule -->
<g id="edge4" class="edge">
<title>AccesstokensListService&#45;&gt;GraphModule</title>
<path fill="none" stroke="black" d="M7603.14,-83.94C7603.14,-107.18 7603.14,-145.8 7603.14,-145.8 7603.14,-145.8 4475.19,-145.8 4475.19,-145.8"/>
<polygon fill="black" stroke="black" points="4475.19,-142.3 4465.19,-145.8 4475.19,-149.3 4475.19,-142.3"/>
</g>
<!-- AccesstokensListService&#45;&gt;GraphModule -->
<g id="edge5" class="edge">
<title>AccesstokensListService&#45;&gt;GraphModule</title>
<path fill="none" stroke="black" d="M7674.86,-84.16C7674.86,-107.69 7674.86,-146.8 7674.86,-146.8 7674.86,-146.8 4475.3,-146.8 4475.3,-146.8"/>
<polygon fill="black" stroke="black" points="4475.3,-143.3 4465.3,-146.8 4475.3,-150.3 4475.3,-143.3"/>
</g>
<!-- AccesstokensRevokeService -->
<g id="node5" class="node">
<title>AccesstokensRevokeService</title>
<ellipse fill="#fdb462" stroke="black" cx="7391" cy="-66.8" rx="122.11" ry="18"/>
<text text-anchor="middle" x="7391" y="-62.6" font-family="Times,serif" font-size="14.00">AccesstokensRevokeService</text>
</g>
<!-- AccesstokensRevokeService&#45;&gt;GraphModule -->
<g id="edge6" class="edge">
<title>AccesstokensRevokeService&#45;&gt;GraphModule</title>
<path fill="none" stroke="black" d="M7391,-84.89C7391,-107.93 7391,-144.8 7391,-144.8 7391,-144.8 4475.3,-144.8 4475.3,-144.8"/>
<polygon fill="black" stroke="black" points="4475.3,-141.3 4465.3,-144.8 4475.3,-148.3 4475.3,-141.3"/>
</g>
<!-- InfoService -->
<g id="node6" class="node">
<title>InfoService</title>
<ellipse fill="#fdb462" stroke="black" cx="7195" cy="-66.8" rx="56.16" ry="18"/>
<text text-anchor="middle" x="7195" y="-62.6" font-family="Times,serif" font-size="14.00">InfoService</text>
</g>
<!-- InfoService&#45;&gt;GraphModule -->
<g id="edge7" class="edge">
<title>InfoService&#45;&gt;GraphModule</title>
<path fill="none" stroke="black" d="M7176.31,-83.82C7176.31,-105.95 7176.31,-141.8 7176.31,-141.8 7176.31,-141.8 4475.3,-141.8 4475.3,-141.8"/>
<polygon fill="black" stroke="black" points="4475.3,-138.3 4465.3,-141.8 4475.3,-145.3 4475.3,-138.3"/>
</g>
<!-- InfoService&#45;&gt;GraphModule -->
<g id="edge8" class="edge">
<title>InfoService&#45;&gt;GraphModule</title>
<path fill="none" stroke="black" d="M7213.69,-84.05C7213.69,-106.47 7213.69,-142.8 7213.69,-142.8 7213.69,-142.8 4475.06,-142.8 4475.06,-142.8"/>
<polygon fill="black" stroke="black" points="4475.06,-139.3 4465.06,-142.8 4475.06,-146.3 4475.06,-139.3"/>
</g>
<!-- InstallationsDataDownloadService -->
<g id="node7" class="node">
<title>InstallationsDataDownloadService</title>
<ellipse fill="#fdb462" stroke="black" cx="6975" cy="-66.8" rx="145.82" ry="18"/>
<text text-anchor="middle" x="6975" y="-62.6" font-family="Times,serif" font-size="14.00">InstallationsDataDownloadService</text>
</g>
<!-- InstallationsDataDownloadService&#45;&gt;GraphModule -->
<g id="edge9" class="edge">
<title>InstallationsDataDownloadService&#45;&gt;GraphModule</title>
<path fill="none" stroke="black" d="M7023.55,-83.96C7023.55,-105.82 7023.55,-140.8 7023.55,-140.8 7023.55,-140.8 4475.17,-140.8 4475.17,-140.8"/>
<polygon fill="black" stroke="black" points="4475.17,-137.3 4465.17,-140.8 4475.17,-144.3 4475.17,-137.3"/>
</g>
<!-- InstallationsDataDownloadService&#45;&gt;GraphModule -->
<g id="edge10" class="edge">
<title>InstallationsDataDownloadService&#45;&gt;GraphModule</title>
<path fill="none" stroke="black" d="M6926.45,-84.1C6926.45,-105.69 6926.45,-139.8 6926.45,-139.8 6926.45,-139.8 4475.04,-139.8 4475.04,-139.8"/>
<polygon fill="black" stroke="black" points="4475.04,-136.3 4465.04,-139.8 4475.04,-143.3 4475.04,-136.3"/>
</g>
<!-- InstallationsDiagnosticsService -->
<g id="node8" class="node">
<title>InstallationsDiagnosticsService</title>
<ellipse fill="#fdb462" stroke="black" cx="6679" cy="-66.8" rx="132.59" ry="18"/>
<text text-anchor="middle" x="6679" y="-62.6" font-family="Times,serif" font-size="14.00">InstallationsDiagnosticsService</text>
</g>
<!-- InstallationsDiagnosticsService&#45;&gt;GraphModule -->
<g id="edge11" class="edge">
<title>InstallationsDiagnosticsService&#45;&gt;GraphModule</title>
<path fill="none" stroke="black" d="M6634.73,-84.1C6634.73,-104.83 6634.73,-136.8 6634.73,-136.8 6634.73,-136.8 4475.07,-136.8 4475.07,-136.8"/>
<polygon fill="black" stroke="black" points="4475.07,-133.3 4465.07,-136.8 4475.07,-140.3 4475.07,-133.3"/>
</g>
<!-- InstallationsDiagnosticsService&#45;&gt;GraphModule -->
<g id="edge12" class="edge">
<title>InstallationsDiagnosticsService&#45;&gt;GraphModule</title>
<path fill="none" stroke="black" d="M6723.27,-83.99C6723.27,-105 6723.27,-137.8 6723.27,-137.8 6723.27,-137.8 4475.09,-137.8 4475.09,-137.8"/>
<polygon fill="black" stroke="black" points="4475.09,-134.3 4465.09,-137.8 4475.09,-141.3 4475.09,-134.3"/>
</g>
<!-- InstallationsGPSService -->
<g id="node9" class="node">
<title>InstallationsGPSService</title>
<ellipse fill="#fdb462" stroke="black" cx="6423" cy="-66.8" rx="104.83" ry="18"/>
<text text-anchor="middle" x="6423" y="-62.6" font-family="Times,serif" font-size="14.00">InstallationsGPSService</text>
</g>
<!-- InstallationsGPSService&#45;&gt;GraphModule -->
<g id="edge13" class="edge">
<title>InstallationsGPSService&#45;&gt;GraphModule</title>
<path fill="none" stroke="black" d="M6388.03,-83.96C6388.03,-104.1 6388.03,-134.8 6388.03,-134.8 6388.03,-134.8 4475.24,-134.8 4475.24,-134.8"/>
<polygon fill="black" stroke="black" points="4475.24,-131.3 4465.24,-134.8 4475.24,-138.3 4475.24,-131.3"/>
</g>
<!-- InstallationsGPSService&#45;&gt;GraphModule -->
<g id="edge14" class="edge">
<title>InstallationsGPSService&#45;&gt;GraphModule</title>
<path fill="none" stroke="black" d="M6457.97,-83.86C6457.97,-104.29 6457.97,-135.8 6457.97,-135.8 6457.97,-135.8 4475.42,-135.8 4475.42,-135.8"/>
<polygon fill="black" stroke="black" points="4475.42,-132.3 4465.42,-135.8 4475.42,-139.3 4475.42,-132.3"/>
</g>
<!-- InstallationsService -->
<g id="node10" class="node">
<title>InstallationsService</title>
<ellipse fill="#fdb462" stroke="black" cx="6213" cy="-66.8" rx="87.4" ry="18"/>
<text text-anchor="middle" x="6213" y="-62.6" font-family="Times,serif" font-size="14.00">InstallationsService</text>
</g>
<!-- InstallationsService&#45;&gt;GraphModule -->
<g id="edge15" class="edge">
<title>InstallationsService&#45;&gt;GraphModule</title>
<path fill="none" stroke="black" d="M6242.07,-84.05C6242.07,-103.91 6242.07,-133.8 6242.07,-133.8 6242.07,-133.8 4475.39,-133.8 4475.39,-133.8"/>
<polygon fill="black" stroke="black" points="4475.39,-130.3 4465.39,-133.8 4475.39,-137.3 4475.39,-130.3"/>
</g>
<!-- InstallationsService&#45;&gt;GraphModule -->
<g id="edge16" class="edge">
<title>InstallationsService&#45;&gt;GraphModule</title>
<path fill="none" stroke="black" d="M6183.93,-83.88C6183.93,-103.14 6183.93,-131.8 6183.93,-131.8 6183.93,-131.8 4475.23,-131.8 4475.23,-131.8"/>
<polygon fill="black" stroke="black" points="4475.23,-128.3 4465.23,-131.8 4475.23,-135.3 4475.23,-128.3"/>
</g>
<!-- InstallationsStatsService -->
<g id="node11" class="node">
<title>InstallationsStatsService</title>
<ellipse fill="#fdb462" stroke="black" cx="6002" cy="-66.8" rx="105.96" ry="18"/>
<text text-anchor="middle" x="6002" y="-62.6" font-family="Times,serif" font-size="14.00">InstallationsStatsService</text>
</g>
<!-- InstallationsStatsService&#45;&gt;GraphModule -->
<g id="edge17" class="edge">
<title>InstallationsStatsService&#45;&gt;GraphModule</title>
<path fill="none" stroke="black" d="M6002,-84.97C6002,-103.89 6002,-130.8 6002,-130.8 6002,-130.8 4475.41,-130.8 4475.41,-130.8"/>
<polygon fill="black" stroke="black" points="4475.41,-127.3 4465.41,-130.8 4475.41,-134.3 4475.41,-127.3"/>
</g>
<!-- InstallationsSystemOverviewService -->
<g id="node12" class="node">
<title>InstallationsSystemOverviewService</title>
<ellipse fill="#fdb462" stroke="black" cx="5724" cy="-66.8" rx="153.92" ry="18"/>
<text text-anchor="middle" x="5724" y="-62.6" font-family="Times,serif" font-size="14.00">InstallationsSystemOverviewService</text>
</g>
<!-- InstallationsSystemOverviewService&#45;&gt;GraphModule -->
<g id="edge18" class="edge">
<title>InstallationsSystemOverviewService&#45;&gt;GraphModule</title>
<path fill="none" stroke="black" d="M5775.24,-84.02C5775.24,-102.67 5775.24,-129.8 5775.24,-129.8 5775.24,-129.8 4475.11,-129.8 4475.11,-129.8"/>
<polygon fill="black" stroke="black" points="4475.11,-126.3 4465.11,-129.8 4475.11,-133.3 4475.11,-126.3"/>
</g>
<!-- InstallationsSystemOverviewService&#45;&gt;GraphModule -->
<g id="edge19" class="edge">
<title>InstallationsSystemOverviewService&#45;&gt;GraphModule</title>
<path fill="none" stroke="black" d="M5672.76,-84.07C5672.76,-102.42 5672.76,-128.8 5672.76,-128.8 5672.76,-128.8 4475.28,-128.8 4475.28,-128.8"/>
<polygon fill="black" stroke="black" points="4475.28,-125.3 4465.28,-128.8 4475.28,-132.3 4475.28,-125.3"/>
</g>
<!-- InstallationsTagsService -->
<g id="node13" class="node">
<title>InstallationsTagsService</title>
<ellipse fill="#fdb462" stroke="black" cx="5446" cy="-66.8" rx="105.94" ry="18"/>
<text text-anchor="middle" x="5446" y="-62.6" font-family="Times,serif" font-size="14.00">InstallationsTagsService</text>
</g>
<!-- InstallationsTagsService&#45;&gt;GraphModule -->
<g id="edge20" class="edge">
<title>InstallationsTagsService&#45;&gt;GraphModule</title>
<path fill="none" stroke="black" d="M5481.32,-83.79C5481.32,-101.84 5481.32,-127.8 5481.32,-127.8 5481.32,-127.8 4475.06,-127.8 4475.06,-127.8"/>
<polygon fill="black" stroke="black" points="4475.06,-124.3 4465.06,-127.8 4475.06,-131.3 4475.06,-124.3"/>
</g>
<!-- InstallationsTagsService&#45;&gt;GraphModule -->
<g id="edge21" class="edge">
<title>InstallationsTagsService&#45;&gt;GraphModule</title>
<path fill="none" stroke="black" d="M5410.68,-83.87C5410.68,-101.29 5410.68,-125.8 5410.68,-125.8 5410.68,-125.8 4475.21,-125.8 4475.21,-125.8"/>
<polygon fill="black" stroke="black" points="4475.21,-122.3 4465.21,-125.8 4475.21,-129.3 4475.21,-122.3"/>
</g>
<!-- LoginDemoService -->
<g id="node14" class="node">
<title>LoginDemoService</title>
<ellipse fill="#fdb462" stroke="black" cx="5235" cy="-66.8" rx="86.82" ry="18"/>
<text text-anchor="middle" x="5235" y="-62.6" font-family="Times,serif" font-size="14.00">LoginDemoService</text>
</g>
<!-- LoginDemoService&#45;&gt;GraphModule -->
<g id="edge22" class="edge">
<title>LoginDemoService&#45;&gt;GraphModule</title>
<path fill="none" stroke="black" d="M5235,-84.83C5235,-101.86 5235,-124.8 5235,-124.8 5235,-124.8 4475.16,-124.8 4475.16,-124.8"/>
<polygon fill="black" stroke="black" points="4475.16,-121.3 4465.16,-124.8 4475.16,-128.3 4475.16,-121.3"/>
</g>
<!-- LoginService -->
<g id="node15" class="node">
<title>LoginService</title>
<ellipse fill="#fdb462" stroke="black" cx="5067" cy="-66.8" rx="63.12" ry="18"/>
<text text-anchor="middle" x="5067" y="-62.6" font-family="Times,serif" font-size="14.00">LoginService</text>
</g>
<!-- LoginService&#45;&gt;GraphModule -->
<g id="edge23" class="edge">
<title>LoginService&#45;&gt;GraphModule</title>
<path fill="none" stroke="black" d="M5067,-84.83C5067,-101.2 5067,-122.8 5067,-122.8 5067,-122.8 4475.2,-122.8 4475.2,-122.8"/>
<polygon fill="black" stroke="black" points="4475.2,-119.3 4465.2,-122.8 4475.2,-126.3 4475.2,-119.3"/>
</g>
<!-- LoginService&#45;&gt;GraphModule -->
<g id="edge24" class="edge">
<title>LoginService&#45;&gt;GraphModule</title>
<path fill="none" stroke="black" d="M5098.53,-82.68C5098.53,-99.54 5098.53,-123.8 5098.53,-123.8 5098.53,-123.8 4475.04,-123.8 4475.04,-123.8"/>
<polygon fill="black" stroke="black" points="4475.04,-120.3 4465.04,-123.8 4475.04,-127.3 4475.04,-120.3"/>
</g>
<!-- LoginService&#45;&gt;GraphModule -->
<g id="edge25" class="edge">
<title>LoginService&#45;&gt;GraphModule</title>
<path fill="none" stroke="black" d="M5035.47,-82.41C5035.47,-98.67 5035.47,-121.8 5035.47,-121.8 5035.47,-121.8 4475.17,-121.8 4475.17,-121.8"/>
<polygon fill="black" stroke="black" points="4475.17,-118.3 4465.17,-121.8 4475.17,-125.3 4475.17,-118.3"/>
</g>
<!-- LogoutService -->
<g id="node16" class="node">
<title>LogoutService</title>
<ellipse fill="#fdb462" stroke="black" cx="4918" cy="-66.8" rx="67.78" ry="18"/>
<text text-anchor="middle" x="4918" y="-62.6" font-family="Times,serif" font-size="14.00">LogoutService</text>
</g>
<!-- LogoutService&#45;&gt;GraphModule -->
<g id="edge26" class="edge">
<title>LogoutService&#45;&gt;GraphModule</title>
<path fill="none" stroke="black" d="M4940.63,-83.86C4940.63,-99.35 4940.63,-119.8 4940.63,-119.8 4940.63,-119.8 4475.3,-119.8 4475.3,-119.8"/>
<polygon fill="black" stroke="black" points="4475.3,-116.3 4465.3,-119.8 4475.3,-123.3 4475.3,-116.3"/>
</g>
<!-- LogoutService&#45;&gt;GraphModule -->
<g id="edge27" class="edge">
<title>LogoutService&#45;&gt;GraphModule</title>
<path fill="none" stroke="black" d="M4895.37,-83.83C4895.37,-98.99 4895.37,-118.8 4895.37,-118.8 4895.37,-118.8 4475.08,-118.8 4475.08,-118.8"/>
<polygon fill="black" stroke="black" points="4475.08,-115.3 4465.08,-118.8 4475.08,-122.3 4475.08,-115.3"/>
</g>
<!-- WidgetBatteryExeternalService -->
<g id="node17" class="node">
<title>WidgetBatteryExeternalService</title>
<ellipse fill="#fdb462" stroke="black" cx="4698" cy="-66.8" rx="133.67" ry="18"/>
<text text-anchor="middle" x="4698" y="-62.6" font-family="Times,serif" font-size="14.00">WidgetBatteryExeternalService</text>
</g>
<!-- WidgetBatteryExeternalService&#45;&gt;GraphModule -->
<g id="edge28" class="edge">
<title>WidgetBatteryExeternalService&#45;&gt;GraphModule</title>
<path fill="none" stroke="black" d="M4631.08,-82.57C4631.08,-96.9 4631.08,-115.8 4631.08,-115.8 4631.08,-115.8 4475.29,-115.8 4475.29,-115.8"/>
<polygon fill="black" stroke="black" points="4475.29,-112.3 4465.29,-115.8 4475.29,-119.3 4475.29,-112.3"/>
</g>
<!-- WidgetBatteryExeternalService&#45;&gt;GraphModule -->
<g id="edge29" class="edge">
<title>WidgetBatteryExeternalService&#45;&gt;GraphModule</title>
<path fill="none" stroke="black" d="M4764.92,-82.66C4764.92,-97.63 4764.92,-117.8 4764.92,-117.8 4764.92,-117.8 4475.15,-117.8 4475.15,-117.8"/>
<polygon fill="black" stroke="black" points="4475.15,-114.3 4465.15,-117.8 4475.15,-121.3 4475.15,-114.3"/>
</g>
<!-- WidgetBatteryExeternalService&#45;&gt;GraphModule -->
<g id="edge30" class="edge">
<title>WidgetBatteryExeternalService&#45;&gt;GraphModule</title>
<path fill="none" stroke="black" d="M4698,-84.85C4698,-99.17 4698,-116.8 4698,-116.8 4698,-116.8 4475.18,-116.8 4475.18,-116.8"/>
<polygon fill="black" stroke="black" points="4475.18,-113.3 4465.18,-116.8 4475.18,-120.3 4475.18,-113.3"/>
</g>
<!-- WidgetBatteryMonitorService -->
<g id="node18" class="node">
<title>WidgetBatteryMonitorService</title>
<ellipse fill="#fdb462" stroke="black" cx="4418" cy="-66.8" rx="128.49" ry="18"/>
<text text-anchor="middle" x="4418" y="-62.6" font-family="Times,serif" font-size="14.00">WidgetBatteryMonitorService</text>
</g>
<!-- WidgetBatteryMonitorService&#45;&gt;GraphModule -->
<g id="edge31" class="edge">
<title>WidgetBatteryMonitorService&#45;&gt;GraphModule</title>
<path fill="none" stroke="black" d="M4402.24,-84.91C4402.24,-84.91 4402.24,-103.79 4402.24,-103.79"/>
<polygon fill="black" stroke="black" points="4398.74,-103.79 4402.24,-113.79 4405.74,-103.79 4398.74,-103.79"/>
</g>
<!-- WidgetBatteryMonitorService&#45;&gt;GraphModule -->
<g id="edge32" class="edge">
<title>WidgetBatteryMonitorService&#45;&gt;GraphModule</title>
<path fill="none" stroke="black" d="M4433.76,-84.91C4433.76,-84.91 4433.76,-103.79 4433.76,-103.79"/>
<polygon fill="black" stroke="black" points="4430.26,-103.79 4433.76,-113.79 4437.26,-103.79 4430.26,-103.79"/>
</g>
<!-- WidgetBatteryRelayService -->
<g id="node19" class="node">
<title>WidgetBatteryRelayService</title>
<ellipse fill="#fdb462" stroke="black" cx="4152" cy="-66.8" rx="119.23" ry="18"/>
<text text-anchor="middle" x="4152" y="-62.6" font-family="Times,serif" font-size="14.00">WidgetBatteryRelayService</text>
</g>
<!-- WidgetBatteryRelayService&#45;&gt;GraphModule -->
<g id="edge33" class="edge">
<title>WidgetBatteryRelayService&#45;&gt;GraphModule</title>
<path fill="none" stroke="black" d="M4112.21,-84.01C4112.21,-98.47 4112.21,-116.8 4112.21,-116.8 4112.21,-116.8 4360.89,-116.8 4360.89,-116.8"/>
<polygon fill="black" stroke="black" points="4360.89,-120.3 4370.89,-116.8 4360.89,-113.3 4360.89,-120.3"/>
</g>
<!-- WidgetBatteryRelayService&#45;&gt;GraphModule -->
<g id="edge34" class="edge">
<title>WidgetBatteryRelayService&#45;&gt;GraphModule</title>
<path fill="none" stroke="black" d="M4191.79,-83.94C4191.79,-98.07 4191.79,-115.8 4191.79,-115.8 4191.79,-115.8 4360.85,-115.8 4360.85,-115.8"/>
<polygon fill="black" stroke="black" points="4360.85,-119.3 4370.85,-115.8 4360.85,-112.3 4360.85,-119.3"/>
</g>
<!-- WidgetChargeRelayStateService -->
<g id="node20" class="node">
<title>WidgetChargeRelayStateService</title>
<ellipse fill="#fdb462" stroke="black" cx="3876" cy="-66.8" rx="138.28" ry="18"/>
<text text-anchor="middle" x="3876" y="-62.6" font-family="Times,serif" font-size="14.00">WidgetChargeRelayStateService</text>
</g>
<!-- WidgetChargeRelayStateService&#45;&gt;GraphModule -->
<g id="edge35" class="edge">
<title>WidgetChargeRelayStateService&#45;&gt;GraphModule</title>
<path fill="none" stroke="black" d="M3829.95,-83.83C3829.95,-98.99 3829.95,-118.8 3829.95,-118.8 3829.95,-118.8 4360.87,-118.8 4360.87,-118.8"/>
<polygon fill="black" stroke="black" points="4360.87,-122.3 4370.87,-118.8 4360.87,-115.3 4360.87,-122.3"/>
</g>
<!-- WidgetChargeRelayStateService&#45;&gt;GraphModule -->
<g id="edge36" class="edge">
<title>WidgetChargeRelayStateService&#45;&gt;GraphModule</title>
<path fill="none" stroke="black" d="M3922.05,-83.78C3922.05,-98.62 3922.05,-117.8 3922.05,-117.8 3922.05,-117.8 4360.89,-117.8 4360.89,-117.8"/>
<polygon fill="black" stroke="black" points="4360.89,-121.3 4370.89,-117.8 4360.89,-114.3 4360.89,-121.3"/>
</g>
<!-- WidgetESSBatteryService -->
<g id="node21" class="node">
<title>WidgetESSBatteryService</title>
<ellipse fill="#fdb462" stroke="black" cx="3606" cy="-66.8" rx="113.46" ry="18"/>
<text text-anchor="middle" x="3606" y="-62.6" font-family="Times,serif" font-size="14.00">WidgetESSBatteryService</text>
</g>
<!-- WidgetESSBatteryService&#45;&gt;GraphModule -->
<g id="edge37" class="edge">
<title>WidgetESSBatteryService&#45;&gt;GraphModule</title>
<path fill="none" stroke="black" d="M3606,-85.04C3606,-100.37 3606,-119.8 3606,-119.8 3606,-119.8 4360.83,-119.8 4360.83,-119.8"/>
<polygon fill="black" stroke="black" points="4360.83,-123.3 4370.83,-119.8 4360.83,-116.3 4360.83,-123.3"/>
</g>
<!-- WidgetFuelCellService -->
<g id="node22" class="node">
<title>WidgetFuelCellService</title>
<ellipse fill="#fdb462" stroke="black" cx="3373" cy="-66.8" rx="101.86" ry="18"/>
<text text-anchor="middle" x="3373" y="-62.6" font-family="Times,serif" font-size="14.00">WidgetFuelCellService</text>
</g>
<!-- WidgetFuelCellService&#45;&gt;GraphModule -->
<g id="edge38" class="edge">
<title>WidgetFuelCellService&#45;&gt;GraphModule</title>
<path fill="none" stroke="black" d="M3339.11,-83.91C3339.11,-100.37 3339.11,-122.8 3339.11,-122.8 3339.11,-122.8 4360.95,-122.8 4360.95,-122.8"/>
<polygon fill="black" stroke="black" points="4360.95,-126.3 4370.95,-122.8 4360.95,-119.3 4360.95,-126.3"/>
</g>
<!-- WidgetFuelCellService&#45;&gt;GraphModule -->
<g id="edge39" class="edge">
<title>WidgetFuelCellService&#45;&gt;GraphModule</title>
<path fill="none" stroke="black" d="M3406.89,-83.9C3406.89,-100.05 3406.89,-121.8 3406.89,-121.8 3406.89,-121.8 4360.92,-121.8 4360.92,-121.8"/>
<polygon fill="black" stroke="black" points="4360.92,-125.3 4370.92,-121.8 4360.92,-118.3 4360.92,-125.3"/>
</g>
<!-- WidgetVeBusStateService -->
<g id="node23" class="node">
<title>WidgetVeBusStateService</title>
<ellipse fill="#fdb462" stroke="black" cx="3139" cy="-66.8" rx="114.03" ry="18"/>
<text text-anchor="middle" x="3139" y="-62.6" font-family="Times,serif" font-size="14.00">WidgetVeBusStateService</text>
</g>
<!-- WidgetVeBusStateService&#45;&gt;GraphModule -->
<g id="edge40" class="edge">
<title>WidgetVeBusStateService&#45;&gt;GraphModule</title>
<path fill="none" stroke="black" d="M3101,-83.89C3101,-101 3101,-124.8 3101,-124.8 3101,-124.8 4360.74,-124.8 4360.74,-124.8"/>
<polygon fill="black" stroke="black" points="4360.74,-128.3 4370.74,-124.8 4360.74,-121.3 4360.74,-128.3"/>
</g>
<!-- WidgetVeBusStateService&#45;&gt;GraphModule -->
<g id="edge41" class="edge">
<title>WidgetVeBusStateService&#45;&gt;GraphModule</title>
<path fill="none" stroke="black" d="M3177,-83.9C3177,-100.69 3177,-123.8 3177,-123.8 3177,-123.8 4360.87,-123.8 4360.87,-123.8"/>
<polygon fill="black" stroke="black" points="4360.87,-127.3 4370.87,-123.8 4360.87,-120.3 4360.87,-127.3"/>
</g>
<!-- WidgetVeBusWarningsService -->
<g id="node24" class="node">
<title>WidgetVeBusWarningsService</title>
<ellipse fill="#fdb462" stroke="black" cx="2875" cy="-66.8" rx="132.5" ry="18"/>
<text text-anchor="middle" x="2875" y="-62.6" font-family="Times,serif" font-size="14.00">WidgetVeBusWarningsService</text>
</g>
<!-- WidgetVeBusWarningsService&#45;&gt;GraphModule -->
<g id="edge42" class="edge">
<title>WidgetVeBusWarningsService&#45;&gt;GraphModule</title>
<path fill="none" stroke="black" d="M2919.08,-83.87C2919.08,-101.29 2919.08,-125.8 2919.08,-125.8 2919.08,-125.8 4360.66,-125.8 4360.66,-125.8"/>
<polygon fill="black" stroke="black" points="4360.66,-129.3 4370.66,-125.8 4360.66,-122.3 4360.66,-129.3"/>
</g>
<!-- WidgetVeBusWarningsService&#45;&gt;GraphModule -->
<g id="edge43" class="edge">
<title>WidgetVeBusWarningsService&#45;&gt;GraphModule</title>
<path fill="none" stroke="black" d="M2830.92,-83.79C2830.92,-101.84 2830.92,-127.8 2830.92,-127.8 2830.92,-127.8 4360.93,-127.8 4360.93,-127.8"/>
<polygon fill="black" stroke="black" points="4360.93,-131.3 4370.93,-127.8 4360.93,-124.3 4360.93,-131.3"/>
</g>
<!-- WidgetsGPSService -->
<g id="node25" class="node">
<title>WidgetsGPSService</title>
<ellipse fill="#fdb462" stroke="black" cx="2635" cy="-66.8" rx="89.78" ry="18"/>
<text text-anchor="middle" x="2635" y="-62.6" font-family="Times,serif" font-size="14.00">WidgetsGPSService</text>
</g>
<!-- WidgetsGPSService&#45;&gt;GraphModule -->
<g id="edge44" class="edge">
<title>WidgetsGPSService&#45;&gt;GraphModule</title>
<path fill="none" stroke="black" d="M2605.04,-84.02C2605.04,-102.67 2605.04,-129.8 2605.04,-129.8 2605.04,-129.8 4360.9,-129.8 4360.9,-129.8"/>
<polygon fill="black" stroke="black" points="4360.9,-133.3 4370.9,-129.8 4360.9,-126.3 4360.9,-133.3"/>
</g>
<!-- WidgetsGPSService&#45;&gt;GraphModule -->
<g id="edge45" class="edge">
<title>WidgetsGPSService&#45;&gt;GraphModule</title>
<path fill="none" stroke="black" d="M2664.96,-84.07C2664.96,-102.42 2664.96,-128.8 2664.96,-128.8 2664.96,-128.8 4360.66,-128.8 4360.66,-128.8"/>
<polygon fill="black" stroke="black" points="4360.66,-132.3 4370.66,-128.8 4360.66,-125.3 4360.66,-132.3"/>
</g>
<!-- WidgetsGatewayRelayService -->
<g id="node26" class="node">
<title>WidgetsGatewayRelayService</title>
<ellipse fill="#fdb462" stroke="black" cx="2398" cy="-66.8" rx="129.04" ry="18"/>
<text text-anchor="middle" x="2398" y="-62.6" font-family="Times,serif" font-size="14.00">WidgetsGatewayRelayService</text>
</g>
<!-- WidgetsGatewayRelayService&#45;&gt;GraphModule -->
<g id="edge46" class="edge">
<title>WidgetsGatewayRelayService&#45;&gt;GraphModule</title>
<path fill="none" stroke="black" d="M2441.01,-83.95C2441.01,-102.91 2441.01,-130.8 2441.01,-130.8 2441.01,-130.8 4360.6,-130.8 4360.6,-130.8"/>
<polygon fill="black" stroke="black" points="4360.6,-134.3 4370.6,-130.8 4360.6,-127.3 4360.6,-134.3"/>
</g>
<!-- WidgetsGatewayRelayService&#45;&gt;GraphModule -->
<g id="edge47" class="edge">
<title>WidgetsGatewayRelayService&#45;&gt;GraphModule</title>
<path fill="none" stroke="black" d="M2354.99,-83.88C2354.99,-103.14 2354.99,-131.8 2354.99,-131.8 2354.99,-131.8 4360.54,-131.8 4360.54,-131.8"/>
<polygon fill="black" stroke="black" points="4360.54,-135.3 4370.54,-131.8 4360.54,-128.3 4360.54,-135.3"/>
</g>
<!-- WidgetsGatewayRelayTwoService -->
<g id="node27" class="node">
<title>WidgetsGatewayRelayTwoService</title>
<ellipse fill="#fdb462" stroke="black" cx="2104" cy="-66.8" rx="146.94" ry="18"/>
<text text-anchor="middle" x="2104" y="-62.6" font-family="Times,serif" font-size="14.00">WidgetsGatewayRelayTwoService</text>
</g>
<!-- WidgetsGatewayRelayTwoService&#45;&gt;GraphModule -->
<g id="edge48" class="edge">
<title>WidgetsGatewayRelayTwoService&#45;&gt;GraphModule</title>
<path fill="none" stroke="black" d="M2055.09,-83.96C2055.09,-104.1 2055.09,-134.8 2055.09,-134.8 2055.09,-134.8 4360.8,-134.8 4360.8,-134.8"/>
<polygon fill="black" stroke="black" points="4360.8,-138.3 4370.8,-134.8 4360.8,-131.3 4360.8,-138.3"/>
</g>
<!-- WidgetsGatewayRelayTwoService&#45;&gt;GraphModule -->
<g id="edge49" class="edge">
<title>WidgetsGatewayRelayTwoService&#45;&gt;GraphModule</title>
<path fill="none" stroke="black" d="M2152.91,-84.05C2152.91,-103.91 2152.91,-133.8 2152.91,-133.8 2152.91,-133.8 4360.95,-133.8 4360.95,-133.8"/>
<polygon fill="black" stroke="black" points="4360.95,-137.3 4370.95,-133.8 4360.95,-130.3 4360.95,-137.3"/>
</g>
<!-- WidgetsGraphService -->
<g id="node28" class="node">
<title>WidgetsGraphService</title>
<ellipse fill="#fdb462" stroke="black" cx="1843" cy="-66.8" rx="96.12" ry="18"/>
<text text-anchor="middle" x="1843" y="-62.6" font-family="Times,serif" font-size="14.00">WidgetsGraphService</text>
</g>
<!-- WidgetsGraphService&#45;&gt;GraphModule -->
<g id="edge50" class="edge">
<title>WidgetsGraphService&#45;&gt;GraphModule</title>
<path fill="none" stroke="black" d="M1810.9,-84.1C1810.9,-104.83 1810.9,-136.8 1810.9,-136.8 1810.9,-136.8 4360.8,-136.8 4360.8,-136.8"/>
<polygon fill="black" stroke="black" points="4360.8,-140.3 4370.8,-136.8 4360.8,-133.3 4360.8,-140.3"/>
</g>
<!-- WidgetsGraphService&#45;&gt;GraphModule -->
<g id="edge51" class="edge">
<title>WidgetsGraphService&#45;&gt;GraphModule</title>
<path fill="none" stroke="black" d="M1875.1,-83.86C1875.1,-104.29 1875.1,-135.8 1875.1,-135.8 1875.1,-135.8 4360.87,-135.8 4360.87,-135.8"/>
<polygon fill="black" stroke="black" points="4360.87,-139.3 4370.87,-135.8 4360.87,-132.3 4360.87,-139.3"/>
</g>
<!-- WidgetsHoursofACService -->
<g id="node29" class="node">
<title>WidgetsHoursofACService</title>
<ellipse fill="#fdb462" stroke="black" cx="1611" cy="-66.8" rx="117.48" ry="18"/>
<text text-anchor="middle" x="1611" y="-62.6" font-family="Times,serif" font-size="14.00">WidgetsHoursofACService</text>
</g>
<!-- WidgetsHoursofACService&#45;&gt;GraphModule -->
<g id="edge52" class="edge">
<title>WidgetsHoursofACService&#45;&gt;GraphModule</title>
<path fill="none" stroke="black" d="M1571.92,-84.1C1571.92,-105.69 1571.92,-139.8 1571.92,-139.8 1571.92,-139.8 4360.68,-139.8 4360.68,-139.8"/>
<polygon fill="black" stroke="black" points="4360.68,-143.3 4370.68,-139.8 4360.68,-136.3 4360.68,-143.3"/>
</g>
<!-- WidgetsHoursofACService&#45;&gt;GraphModule -->
<g id="edge53" class="edge">
<title>WidgetsHoursofACService&#45;&gt;GraphModule</title>
<path fill="none" stroke="black" d="M1650.08,-83.99C1650.08,-105 1650.08,-137.8 1650.08,-137.8 1650.08,-137.8 4360.83,-137.8 4360.83,-137.8"/>
<polygon fill="black" stroke="black" points="4360.83,-141.3 4370.83,-137.8 4360.83,-134.3 4360.83,-141.3"/>
</g>
<!-- WidgetsInputService -->
<g id="node30" class="node">
<title>WidgetsInputService</title>
<ellipse fill="#fdb462" stroke="black" cx="1383" cy="-66.8" rx="92.62" ry="18"/>
<text text-anchor="middle" x="1383" y="-62.6" font-family="Times,serif" font-size="14.00">WidgetsInputService</text>
</g>
<!-- WidgetsInputService&#45;&gt;GraphModule -->
<g id="edge54" class="edge">
<title>WidgetsInputService&#45;&gt;GraphModule</title>
<path fill="none" stroke="black" d="M1383,-85.09C1383,-107.01 1383,-140.8 1383,-140.8 1383,-140.8 4360.94,-140.8 4360.94,-140.8"/>
<polygon fill="black" stroke="black" points="4360.94,-144.3 4370.94,-140.8 4360.94,-137.3 4360.94,-144.3"/>
</g>
<!-- WidgetsInverterChargeWarningsService -->
<g id="node31" class="node">
<title>WidgetsInverterChargeWarningsService</title>
<ellipse fill="#fdb462" stroke="black" cx="1104" cy="-66.8" rx="168.33" ry="18"/>
<text text-anchor="middle" x="1104" y="-62.6" font-family="Times,serif" font-size="14.00">WidgetsInverterChargeWarningsService</text>
</g>
<!-- WidgetsInverterChargeWarningsService&#45;&gt;GraphModule -->
<g id="edge55" class="edge">
<title>WidgetsInverterChargeWarningsService&#45;&gt;GraphModule</title>
<path fill="none" stroke="black" d="M1047.95,-84.05C1047.95,-106.47 1047.95,-142.8 1047.95,-142.8 1047.95,-142.8 4360.68,-142.8 4360.68,-142.8"/>
<polygon fill="black" stroke="black" points="4360.68,-146.3 4370.68,-142.8 4360.68,-139.3 4360.68,-146.3"/>
</g>
<!-- WidgetsInverterChargeWarningsService&#45;&gt;GraphModule -->
<g id="edge56" class="edge">
<title>WidgetsInverterChargeWarningsService&#45;&gt;GraphModule</title>
<path fill="none" stroke="black" d="M1160.05,-83.82C1160.05,-105.95 1160.05,-141.8 1160.05,-141.8 1160.05,-141.8 4360.69,-141.8 4360.69,-141.8"/>
<polygon fill="black" stroke="black" points="4360.69,-145.3 4370.69,-141.8 4360.69,-138.3 4360.69,-145.3"/>
</g>
<!-- WidgetsInverterChargerStateService -->
<g id="node32" class="node">
<title>WidgetsInverterChargerStateService</title>
<ellipse fill="#fdb462" stroke="black" cx="765" cy="-66.8" rx="153.29" ry="18"/>
<text text-anchor="middle" x="765" y="-62.6" font-family="Times,serif" font-size="14.00">WidgetsInverterChargerStateService</text>
</g>
<!-- WidgetsInverterChargerStateService&#45;&gt;GraphModule -->
<g id="edge57" class="edge">
<title>WidgetsInverterChargerStateService&#45;&gt;GraphModule</title>
<path fill="none" stroke="black" d="M816.05,-84.11C816.05,-107.09 816.05,-144.8 816.05,-144.8 816.05,-144.8 4360.81,-144.8 4360.81,-144.8"/>
<polygon fill="black" stroke="black" points="4360.81,-148.3 4370.81,-144.8 4360.81,-141.3 4360.81,-148.3"/>
</g>
<!-- WidgetsInverterChargerStateService&#45;&gt;GraphModule -->
<g id="edge58" class="edge">
<title>WidgetsInverterChargerStateService&#45;&gt;GraphModule</title>
<path fill="none" stroke="black" d="M713.95,-83.94C713.95,-107.18 713.95,-145.8 713.95,-145.8 713.95,-145.8 4360.83,-145.8 4360.83,-145.8"/>
<polygon fill="black" stroke="black" points="4360.83,-149.3 4370.83,-145.8 4360.83,-142.3 4360.83,-149.3"/>
</g>
<!-- WidgetsInverterService -->
<g id="node33" class="node">
<title>WidgetsInverterService</title>
<ellipse fill="#fdb462" stroke="black" cx="491" cy="-66.8" rx="102.97" ry="18"/>
<text text-anchor="middle" x="491" y="-62.6" font-family="Times,serif" font-size="14.00">WidgetsInverterService</text>
</g>
<!-- WidgetsInverterService&#45;&gt;GraphModule -->
<g id="edge59" class="edge">
<title>WidgetsInverterService&#45;&gt;GraphModule</title>
<path fill="none" stroke="black" d="M491,-84.95C491,-108.56 491,-146.8 491,-146.8 491,-146.8 4360.81,-146.8 4360.81,-146.8"/>
<polygon fill="black" stroke="black" points="4360.81,-150.3 4370.81,-146.8 4360.81,-143.3 4360.81,-150.3"/>
</g>
<!-- WidgetsSolarStateService -->
<g id="node34" class="node">
<title>WidgetsSolarStateService</title>
<ellipse fill="#fdb462" stroke="black" cx="258" cy="-66.8" rx="111.74" ry="18"/>
<text text-anchor="middle" x="258" y="-62.6" font-family="Times,serif" font-size="14.00">WidgetsSolarStateService</text>
</g>
<!-- WidgetsSolarStateService&#45;&gt;GraphModule -->
<g id="edge60" class="edge">
<title>WidgetsSolarStateService&#45;&gt;GraphModule</title>
<path fill="none" stroke="black" d="M258,-85.18C258,-109.08 258,-147.8 258,-147.8 258,-147.8 4360.92,-147.8 4360.92,-147.8"/>
<polygon fill="black" stroke="black" points="4360.92,-151.3 4370.92,-147.8 4360.92,-144.3 4360.92,-151.3"/>
</g>
</g>
</svg>
