<?xml version="1.0" encoding="UTF-8" standalone="no"?>
<!DOCTYPE svg PUBLIC "-//W3C//DTD SVG 1.1//EN"
 "http://www.w3.org/Graphics/SVG/1.1/DTD/svg11.dtd">
<!-- Generated by graphviz version 5.0.0 (20220707.1540)
 -->
<!-- Title: dependencies Pages: 1 -->
<svg width="404pt" height="174pt"
 viewBox="0.00 0.00 404.00 173.80" xmlns="http://www.w3.org/2000/svg" xmlns:xlink="http://www.w3.org/1999/xlink">
<g id="graph0" class="graph" transform="scale(1 1) rotate(0) translate(4 169.8)">
<title>dependencies</title>
<polygon fill="white" stroke="transparent" points="-4,4 -4,-169.8 400,-169.8 400,4 -4,4"/>
<text text-anchor="middle" x="198" y="-8.2" font-family="sans-serif" font-size="14.00">dependencies</text>
<g id="clust1" class="cluster">
<title>cluster_AppModule</title>
<polygon fill="none" stroke="black" stroke-dasharray="1,5" points="8,-32.8 8,-157.8 388,-157.8 388,-32.8 8,-32.8"/>
</g>
<g id="clust6" class="cluster">
<title>cluster_AppModule_providers</title>
<polygon fill="none" stroke="black" points="250,-40.8 250,-92.8 380,-92.8 380,-40.8 250,-40.8"/>
</g>
<g id="clust3" class="cluster">
<title>cluster_AppModule_imports</title>
<polygon fill="none" stroke="black" points="16,-40.8 16,-92.8 242,-92.8 242,-40.8 16,-40.8"/>
</g>
<!-- GraphModule -->
<g id="node1" class="node">
<title>GraphModule</title>
<polygon fill="#8dd3c7" stroke="black" points="234.04,-84.8 231.04,-88.8 210.04,-88.8 207.04,-84.8 139.96,-84.8 139.96,-48.8 234.04,-48.8 234.04,-84.8"/>
<text text-anchor="middle" x="187" y="-62.6" font-family="Times,serif" font-size="14.00">GraphModule</text>
</g>
<!-- AppModule -->
<g id="node3" class="node">
<title>AppModule</title>
<polygon fill="#8dd3c7" stroke="black" points="228.66,-149.8 225.66,-153.8 204.66,-153.8 201.66,-149.8 145.34,-149.8 145.34,-113.8 228.66,-113.8 228.66,-149.8"/>
<text text-anchor="middle" x="187" y="-127.6" font-family="Times,serif" font-size="14.00">AppModule</text>
</g>
<!-- GraphModule&#45;&gt;AppModule -->
<g id="edge1" class="edge">
<title>GraphModule&#45;&gt;AppModule</title>
<path fill="none" stroke="black" d="M187,-84.91C187,-84.91 187,-103.79 187,-103.79"/>
<polygon fill="black" stroke="black" points="183.5,-103.79 187,-113.79 190.5,-103.79 183.5,-103.79"/>
</g>
<!-- SharedModule -->
<g id="node2" class="node">
<title>SharedModule</title>
<polygon fill="#8dd3c7" stroke="black" points="122.43,-84.8 119.43,-88.8 98.43,-88.8 95.43,-84.8 23.57,-84.8 23.57,-48.8 122.43,-48.8 122.43,-84.8"/>
<text text-anchor="middle" x="73" y="-62.6" font-family="Times,serif" font-size="14.00">SharedModule</text>
</g>
<!-- SharedModule&#45;&gt;AppModule -->
<g id="edge2" class="edge">
<title>SharedModule&#45;&gt;AppModule</title>
<path fill="none" stroke="black" d="M73,-84.91C73,-104.14 73,-131.8 73,-131.8 73,-131.8 135.2,-131.8 135.2,-131.8"/>
<polygon fill="black" stroke="black" points="135.2,-135.3 145.2,-131.8 135.2,-128.3 135.2,-135.3"/>
</g>
<!-- AppService -->
<g id="node4" class="node">
<title>AppService</title>
<ellipse fill="#fdb462" stroke="black" cx="315" cy="-66.8" rx="56.75" ry="18"/>
<text text-anchor="middle" x="315" y="-62.6" font-family="Times,serif" font-size="14.00">AppService</text>
</g>
<!-- AppService&#45;&gt;AppModule -->
<g id="edge3" class="edge">
<title>AppService&#45;&gt;AppModule</title>
<path fill="none" stroke="black" d="M315,-84.91C315,-104.14 315,-131.8 315,-131.8 315,-131.8 238.91,-131.8 238.91,-131.8"/>
<polygon fill="black" stroke="black" points="238.91,-128.3 228.91,-131.8 238.91,-135.3 238.91,-128.3"/>
</g>
</g>
</svg>
