<?xml version="1.0" encoding="UTF-8" standalone="no"?>
<!DOCTYPE svg PUBLIC "-//W3C//DTD SVG 1.1//EN"
 "http://www.w3.org/Graphics/SVG/1.1/DTD/svg11.dtd">
<!-- Generated by graphviz version 5.0.0 (20220707.1540)
 -->
<!-- Title: dependencies Pages: 1 -->
<svg width="600pt" height="207pt"
 viewBox="0.00 0.00 600.00 207.20" xmlns="http://www.w3.org/2000/svg" xmlns:xlink="http://www.w3.org/1999/xlink">
<g id="graph0" class="graph" transform="scale(1 1) rotate(0) translate(4 203.2)">
<title>dependencies</title>
<polygon fill="white" stroke="transparent" points="-4,4 -4,-203.2 596,-203.2 596,4 -4,4"/>
<text text-anchor="middle" x="296" y="-8.2" font-family="sans-serif" font-size="14.00">dependencies</text>
<g id="clust1" class="cluster">
<title>cluster_AppModule</title>
<polygon fill="none" stroke="black" stroke-dasharray="1,5" points="8,-32.8 8,-172 276,-172 276,-32.8 8,-32.8"/>
</g>
<g id="clust3" class="cluster">
<title>cluster_AppModule_imports</title>
<polygon fill="none" stroke="black" points="154,-40.8 154,-92.8 268,-92.8 268,-40.8 154,-40.8"/>
</g>
<g id="clust6" class="cluster">
<title>cluster_AppModule_providers</title>
<polygon fill="none" stroke="black" points="16,-40.8 16,-92.8 146,-92.8 146,-40.8 16,-40.8"/>
</g>
<g id="clust7" class="cluster">
<title>cluster_SharedModule</title>
<polygon fill="none" stroke="black" stroke-dasharray="1,5" points="284,-100.8 284,-191.2 584,-191.2 584,-100.8 284,-100.8"/>
</g>
<g id="clust10" class="cluster">
<title>cluster_SharedModule_exports</title>
<polygon fill="none" stroke="black" points="292,-108.8 292,-183.2 576,-183.2 576,-108.8 292,-108.8"/>
</g>
<!-- SharedModule -->
<g id="node1" class="node">
<title>SharedModule</title>
<polygon fill="#8dd3c7" stroke="black" points="260.43,-84.8 257.43,-88.8 236.43,-88.8 233.43,-84.8 161.57,-84.8 161.57,-48.8 260.43,-48.8 260.43,-84.8"/>
<text text-anchor="middle" x="211" y="-62.6" font-family="Times,serif" font-size="14.00">SharedModule</text>
</g>
<!-- AppModule -->
<g id="node2" class="node">
<title>AppModule</title>
<polygon fill="#8dd3c7" stroke="black" points="187.66,-164 184.66,-168 163.66,-168 160.66,-164 104.34,-164 104.34,-128 187.66,-128 187.66,-164"/>
<text text-anchor="middle" x="146" y="-141.8" font-family="Times,serif" font-size="14.00">AppModule</text>
</g>
<!-- SharedModule&#45;&gt;AppModule -->
<g id="edge1" class="edge">
<title>SharedModule&#45;&gt;AppModule</title>
<path fill="none" stroke="black" d="M174.81,-85.17C174.81,-85.17 174.81,-117.73 174.81,-117.73"/>
<polygon fill="black" stroke="black" points="171.31,-117.73 174.81,-127.73 178.31,-117.73 171.31,-117.73"/>
</g>
<!-- {
 &#160;&#160;&#160;provide: , useClass: VirtualTimeScheduler
}  -->
<g id="node4" class="node">
<title>{
 &#160;&#160;&#160;provide: , useClass: VirtualTimeScheduler
} </title>
<polygon fill="#fb8072" stroke="black" points="568.22,-175.4 299.78,-175.4 299.78,-116.6 568.22,-116.6 568.22,-175.4"/>
<text text-anchor="middle" x="434" y="-158.6" font-family="Times,serif" font-size="14.00">{</text>
<text text-anchor="middle" x="434" y="-141.8" font-family="Times,serif" font-size="14.00"> &#160;&#160;&#160;provide: , useClass: VirtualTimeScheduler</text>
<text text-anchor="middle" x="434" y="-125" font-family="Times,serif" font-size="14.00">} </text>
</g>
<!-- SharedModule&#45;&gt;{
 &#160;&#160;&#160;provide: , useClass: VirtualTimeScheduler
}  -->
<g id="edge3" class="edge">
<title>SharedModule&#45;&gt;{
 &#160;&#160;&#160;provide: , useClass: VirtualTimeScheduler
} </title>
<path fill="none" stroke="black" stroke-dasharray="5,2" d="M224.02,-84.96C224.02,-101.44 224.02,-123.2 224.02,-123.2 224.02,-123.2 289.53,-123.2 289.53,-123.2"/>
<polygon fill="black" stroke="black" points="289.53,-126.7 299.53,-123.2 289.53,-119.7 289.53,-126.7"/>
</g>
<!-- AppService -->
<g id="node3" class="node">
<title>AppService</title>
<ellipse fill="#fdb462" stroke="black" cx="81" cy="-66.8" rx="56.75" ry="18"/>
<text text-anchor="middle" x="81" y="-62.6" font-family="Times,serif" font-size="14.00">AppService</text>
</g>
<!-- AppService&#45;&gt;AppModule -->
<g id="edge2" class="edge">
<title>AppService&#45;&gt;AppModule</title>
<path fill="none" stroke="black" d="M120.9,-79.88C120.9,-79.88 120.9,-117.86 120.9,-117.86"/>
<polygon fill="black" stroke="black" points="117.4,-117.86 120.9,-127.86 124.4,-117.86 117.4,-117.86"/>
</g>
</g>
</svg>
