<?xml version="1.0" encoding="UTF-8" standalone="no"?>
<!DOCTYPE svg PUBLIC "-//W3C//DTD SVG 1.1//EN"
 "http://www.w3.org/Graphics/SVG/1.1/DTD/svg11.dtd">
<!-- Generated by graphviz version 5.0.0 (20220707.1540)
 -->
<!-- Title: dependencies Pages: 1 -->
<svg width="8486pt" height="279pt"
 viewBox="0.00 0.00 8486.00 278.80" xmlns="http://www.w3.org/2000/svg" xmlns:xlink="http://www.w3.org/1999/xlink">
<g id="graph0" class="graph" transform="scale(1 1) rotate(0) translate(4 274.8)">
<title>dependencies</title>
<polygon fill="white" stroke="transparent" points="-4,4 -4,-274.8 8482,-274.8 8482,4 -4,4"/>
<text text-anchor="middle" x="4239" y="-8.2" font-family="sans-serif" font-size="14.00">dependencies</text>
<g id="clust1" class="cluster">
<title>cluster_AppModule</title>
<polygon fill="none" stroke="black" stroke-dasharray="1,5" points="7902,-39.4 7902,-262.8 8178,-262.8 8178,-39.4 7902,-39.4"/>
</g>
<g id="clust3" class="cluster">
<title>cluster_AppModule_imports</title>
<polygon fill="none" stroke="black" points="8048,-47.4 8048,-186.6 8162,-186.6 8162,-47.4 8048,-47.4"/>
</g>
<g id="clust6" class="cluster">
<title>cluster_AppModule_providers</title>
<polygon fill="none" stroke="black" points="7910,-134.6 7910,-186.6 8040,-186.6 8040,-134.6 7910,-134.6"/>
</g>
<g id="clust7" class="cluster">
<title>cluster_GraphModule</title>
<polygon fill="none" stroke="black" stroke-dasharray="1,5" points="8,-39.4 8,-107.4 7894,-107.4 7894,-39.4 8,-39.4"/>
</g>
<g id="clust12" class="cluster">
<title>cluster_GraphModule_providers</title>
<polygon fill="none" stroke="black" points="16,-47.4 16,-99.4 7886,-99.4 7886,-47.4 16,-47.4"/>
</g>
<g id="clust13" class="cluster">
<title>cluster_SharedModule</title>
<polygon fill="none" stroke="black" stroke-dasharray="1,5" points="8186,-115.4 8186,-205.8 8470,-205.8 8470,-115.4 8186,-115.4"/>
</g>
<g id="clust16" class="cluster">
<title>cluster_SharedModule_exports</title>
<polygon fill="none" stroke="black" points="8194,-123.4 8194,-197.8 8462,-197.8 8462,-123.4 8194,-123.4"/>
</g>
<!-- GraphModule -->
<g id="node1" class="node">
<title>GraphModule</title>
<polygon fill="#8dd3c7" stroke="black" points="8150.04,-178.6 8147.04,-182.6 8126.04,-182.6 8123.04,-178.6 8055.96,-178.6 8055.96,-142.6 8150.04,-142.6 8150.04,-178.6"/>
<text text-anchor="middle" x="8103" y="-156.4" font-family="Times,serif" font-size="14.00">GraphModule</text>
</g>
<!-- AppModule -->
<g id="node3" class="node">
<title>AppModule</title>
<polygon fill="#8dd3c7" stroke="black" points="8144.66,-254.8 8141.66,-258.8 8120.66,-258.8 8117.66,-254.8 8061.34,-254.8 8061.34,-218.8 8144.66,-218.8 8144.66,-254.8"/>
<text text-anchor="middle" x="8103" y="-232.6" font-family="Times,serif" font-size="14.00">AppModule</text>
</g>
<!-- GraphModule&#45;&gt;AppModule -->
<g id="edge1" class="edge">
<title>GraphModule&#45;&gt;AppModule</title>
<path fill="none" stroke="black" d="M8140.43,-178.66C8140.43,-178.66 8140.43,-208.61 8140.43,-208.61"/>
<polygon fill="black" stroke="black" points="8136.93,-208.61 8140.43,-218.61 8143.93,-208.61 8136.93,-208.61"/>
</g>
<!-- SharedModule -->
<g id="node2" class="node">
<title>SharedModule</title>
<polygon fill="#8dd3c7" stroke="black" points="8154.43,-91.4 8151.43,-95.4 8130.43,-95.4 8127.43,-91.4 8055.57,-91.4 8055.57,-55.4 8154.43,-55.4 8154.43,-91.4"/>
<text text-anchor="middle" x="8105" y="-69.2" font-family="Times,serif" font-size="14.00">SharedModule</text>
</g>
<!-- SharedModule&#45;&gt;GraphModule -->
<g id="edge4" class="edge">
<title>SharedModule&#45;&gt;GraphModule</title>
<path fill="none" stroke="black" d="M8141.27,-91.47C8141.27,-91.47 8141.27,-132.56 8141.27,-132.56"/>
<polygon fill="black" stroke="black" points="8137.77,-132.56 8141.27,-142.56 8144.77,-132.56 8137.77,-132.56"/>
</g>
<!-- SharedModule&#45;&gt;AppModule -->
<g id="edge2" class="edge">
<title>SharedModule&#45;&gt;AppModule</title>
<path fill="none" stroke="black" d="M8055.43,-82.8C8054.34,-82.8 8053.72,-82.8 8053.72,-82.8 8053.72,-82.8 8053.72,-230.8 8053.72,-230.8 8053.72,-230.8 8054.45,-230.8 8054.45,-230.8"/>
<polygon fill="black" stroke="black" points="8050.99,-234.3 8060.99,-230.8 8050.99,-227.3 8050.99,-234.3"/>
</g>
<!-- {
 &#160;&#160;&#160;provide: , useClass: VRMHttpProvider,
}  -->
<g id="node37" class="node">
<title>{
 &#160;&#160;&#160;provide: , useClass: VRMHttpProvider,
} </title>
<polygon fill="#fb8072" stroke="black" points="8454.04,-190 8201.96,-190 8201.96,-131.2 8454.04,-131.2 8454.04,-190"/>
<text text-anchor="middle" x="8328" y="-173.2" font-family="Times,serif" font-size="14.00">{</text>
<text text-anchor="middle" x="8328" y="-156.4" font-family="Times,serif" font-size="14.00"> &#160;&#160;&#160;provide: , useClass: VRMHttpProvider,</text>
<text text-anchor="middle" x="8328" y="-139.6" font-family="Times,serif" font-size="14.00">} </text>
</g>
<!-- SharedModule&#45;&gt;{
 &#160;&#160;&#160;provide: , useClass: VRMHttpProvider,
}  -->
<g id="edge64" class="edge">
<title>SharedModule&#45;&gt;{
 &#160;&#160;&#160;provide: , useClass: VRMHttpProvider,
} </title>
<path fill="none" stroke="black" stroke-dasharray="5,2" d="M8145.77,-91.49C8145.77,-109.6 8145.77,-134.8 8145.77,-134.8 8145.77,-134.8 8191.93,-134.8 8191.93,-134.8"/>
<polygon fill="black" stroke="black" points="8191.93,-138.3 8201.93,-134.8 8191.93,-131.3 8191.93,-138.3"/>
</g>
<!-- AppService -->
<g id="node4" class="node">
<title>AppService</title>
<ellipse fill="#fdb462" stroke="black" cx="7975" cy="-160.6" rx="56.75" ry="18"/>
<text text-anchor="middle" x="7975" y="-156.4" font-family="Times,serif" font-size="14.00">AppService</text>
</g>
<!-- AppService&#45;&gt;AppModule -->
<g id="edge3" class="edge">
<title>AppService&#45;&gt;AppModule</title>
<path fill="none" stroke="black" d="M7975,-178.84C7975,-203.06 7975,-242.8 7975,-242.8 7975,-242.8 8051.09,-242.8 8051.09,-242.8"/>
<polygon fill="black" stroke="black" points="8051.09,-246.3 8061.09,-242.8 8051.09,-239.3 8051.09,-246.3"/>
</g>
<!-- AccesstokensCreateService -->
<g id="node5" class="node">
<title>AccesstokensCreateService</title>
<ellipse fill="#fdb462" stroke="black" cx="7760" cy="-73.4" rx="117.51" ry="18"/>
<text text-anchor="middle" x="7760" y="-69.2" font-family="Times,serif" font-size="14.00">AccesstokensCreateService</text>
</g>
<!-- AccesstokensCreateService&#45;&gt;GraphModule -->
<g id="edge5" class="edge">
<title>AccesstokensCreateService&#45;&gt;GraphModule</title>
<path fill="none" stroke="black" d="M7878.1,-73.8C7952.91,-73.8 8035.64,-73.8 8035.64,-73.8 8035.64,-73.8 8035.64,-168.8 8035.64,-168.8 8035.64,-168.8 8045.85,-168.8 8045.85,-168.8"/>
<polygon fill="black" stroke="black" points="8045.85,-172.3 8055.85,-168.8 8045.85,-165.3 8045.85,-172.3"/>
</g>
<!-- AccesstokensCreateService&#45;&gt;GraphModule -->
<g id="edge6" class="edge">
<title>AccesstokensCreateService&#45;&gt;GraphModule</title>
<path fill="none" stroke="black" d="M7863.78,-64.8C7942.64,-64.8 8037.65,-64.8 8037.65,-64.8 8037.65,-64.8 8037.65,-172.8 8037.65,-172.8 8037.65,-172.8 8045.85,-172.8 8045.85,-172.8"/>
<polygon fill="black" stroke="black" points="8045.85,-176.3 8055.85,-172.8 8045.85,-169.3 8045.85,-176.3"/>
</g>
<!-- AccesstokensListService -->
<g id="node6" class="node">
<title>AccesstokensListService</title>
<ellipse fill="#fdb462" stroke="black" cx="7517" cy="-73.4" rx="107.66" ry="18"/>
<text text-anchor="middle" x="7517" y="-69.2" font-family="Times,serif" font-size="14.00">AccesstokensListService</text>
</g>
<!-- AccesstokensListService&#45;&gt;GraphModule -->
<g id="edge7" class="edge">
<title>AccesstokensListService&#45;&gt;GraphModule</title>
<path fill="none" stroke="black" d="M7552.86,-90.79C7552.86,-100.55 7552.86,-110.8 7552.86,-110.8 7552.86,-110.8 8136.77,-110.8 8136.77,-110.8 8136.77,-110.8 8136.77,-132.34 8136.77,-132.34"/>
<polygon fill="black" stroke="black" points="8133.27,-132.34 8136.77,-142.34 8140.27,-132.34 8133.27,-132.34"/>
</g>
<!-- AccesstokensListService&#45;&gt;GraphModule -->
<g id="edge8" class="edge">
<title>AccesstokensListService&#45;&gt;GraphModule</title>
<path fill="none" stroke="black" d="M7481.14,-90.8C7481.14,-100.96 7481.14,-111.8 7481.14,-111.8 7481.14,-111.8 8132.27,-111.8 8132.27,-111.8 8132.27,-111.8 8132.27,-132.43 8132.27,-132.43"/>
<polygon fill="black" stroke="black" points="8128.77,-132.43 8132.27,-142.43 8135.77,-132.43 8128.77,-132.43"/>
</g>
<!-- AccesstokensRevokeService -->
<g id="node7" class="node">
<title>AccesstokensRevokeService</title>
<ellipse fill="#fdb462" stroke="black" cx="7269" cy="-73.4" rx="122.11" ry="18"/>
<text text-anchor="middle" x="7269" y="-69.2" font-family="Times,serif" font-size="14.00">AccesstokensRevokeService</text>
</g>
<!-- AccesstokensRevokeService&#45;&gt;GraphModule -->
<g id="edge9" class="edge">
<title>AccesstokensRevokeService&#45;&gt;GraphModule</title>
<path fill="none" stroke="black" d="M7269,-91.68C7269,-110.72 7269,-137.8 7269,-137.8 7269,-137.8 8060.29,-137.8 8060.29,-137.8 8060.29,-137.8 8060.29,-138.24 8060.29,-138.24"/>
<polygon fill="black" stroke="black" points="8056.79,-132.2 8060.29,-142.2 8063.79,-132.2 8056.79,-132.2"/>
</g>
<!-- InfoService -->
<g id="node8" class="node">
<title>InfoService</title>
<ellipse fill="#fdb462" stroke="black" cx="7073" cy="-73.4" rx="56.16" ry="18"/>
<text text-anchor="middle" x="7073" y="-69.2" font-family="Times,serif" font-size="14.00">InfoService</text>
</g>
<!-- InfoService&#45;&gt;GraphModule -->
<g id="edge10" class="edge">
<title>InfoService&#45;&gt;GraphModule</title>
<path fill="none" stroke="black" d="M7091.69,-90.8C7091.69,-101.35 7091.69,-112.8 7091.69,-112.8 7091.69,-112.8 8127.77,-112.8 8127.77,-112.8 8127.77,-112.8 8127.77,-132.53 8127.77,-132.53"/>
<polygon fill="black" stroke="black" points="8124.27,-132.53 8127.77,-142.53 8131.27,-132.53 8124.27,-132.53"/>
</g>
<!-- InfoService&#45;&gt;GraphModule -->
<g id="edge11" class="edge">
<title>InfoService&#45;&gt;GraphModule</title>
<path fill="none" stroke="black" d="M7054.31,-90.72C7054.31,-102.06 7054.31,-114.8 7054.31,-114.8 7054.31,-114.8 8123.27,-114.8 8123.27,-114.8 8123.27,-114.8 8123.27,-132.5 8123.27,-132.5"/>
<polygon fill="black" stroke="black" points="8119.77,-132.5 8123.27,-142.5 8126.77,-132.5 8119.77,-132.5"/>
</g>
<!-- InstallationsDataDownloadService -->
<g id="node9" class="node">
<title>InstallationsDataDownloadService</title>
<ellipse fill="#fdb462" stroke="black" cx="6853" cy="-73.4" rx="145.82" ry="18"/>
<text text-anchor="middle" x="6853" y="-69.2" font-family="Times,serif" font-size="14.00">InstallationsDataDownloadService</text>
</g>
<!-- InstallationsDataDownloadService&#45;&gt;GraphModule -->
<g id="edge12" class="edge">
<title>InstallationsDataDownloadService&#45;&gt;GraphModule</title>
<path fill="none" stroke="black" d="M6901.55,-90.65C6901.55,-102.38 6901.55,-115.8 6901.55,-115.8 6901.55,-115.8 8118.77,-115.8 8118.77,-115.8 8118.77,-115.8 8118.77,-132.38 8118.77,-132.38"/>
<polygon fill="black" stroke="black" points="8115.27,-132.38 8118.77,-142.38 8122.27,-132.38 8115.27,-132.38"/>
</g>
<!-- InstallationsDataDownloadService&#45;&gt;GraphModule -->
<g id="edge13" class="edge">
<title>InstallationsDataDownloadService&#45;&gt;GraphModule</title>
<path fill="none" stroke="black" d="M6804.45,-90.55C6804.45,-102.68 6804.45,-116.8 6804.45,-116.8 6804.45,-116.8 8114.28,-116.8 8114.28,-116.8 8114.28,-116.8 8114.28,-132.53 8114.28,-132.53"/>
<polygon fill="black" stroke="black" points="8110.78,-132.53 8114.28,-142.53 8117.78,-132.53 8110.78,-132.53"/>
</g>
<!-- InstallationsDiagnosticsService -->
<g id="node10" class="node">
<title>InstallationsDiagnosticsService</title>
<ellipse fill="#fdb462" stroke="black" cx="6557" cy="-73.4" rx="132.59" ry="18"/>
<text text-anchor="middle" x="6557" y="-69.2" font-family="Times,serif" font-size="14.00">InstallationsDiagnosticsService</text>
</g>
<!-- InstallationsDiagnosticsService&#45;&gt;GraphModule -->
<g id="edge14" class="edge">
<title>InstallationsDiagnosticsService&#45;&gt;GraphModule</title>
<path fill="none" stroke="black" d="M6601.27,-90.44C6601.27,-102.96 6601.27,-117.8 6601.27,-117.8 6601.27,-117.8 8109.78,-117.8 8109.78,-117.8 8109.78,-117.8 8109.78,-132.2 8109.78,-132.2"/>
<polygon fill="black" stroke="black" points="8106.28,-132.2 8109.78,-142.2 8113.28,-132.2 8106.28,-132.2"/>
</g>
<!-- InstallationsDiagnosticsService&#45;&gt;GraphModule -->
<g id="edge15" class="edge">
<title>InstallationsDiagnosticsService&#45;&gt;GraphModule</title>
<path fill="none" stroke="black" d="M6512.73,-90.41C6512.73,-103.66 6512.73,-119.8 6512.73,-119.8 6512.73,-119.8 8105.28,-119.8 8105.28,-119.8 8105.28,-119.8 8105.28,-132.59 8105.28,-132.59"/>
<polygon fill="black" stroke="black" points="8101.78,-132.59 8105.28,-142.59 8108.78,-132.59 8101.78,-132.59"/>
</g>
<!-- InstallationsGPSService -->
<g id="node11" class="node">
<title>InstallationsGPSService</title>
<ellipse fill="#fdb462" stroke="black" cx="6301" cy="-73.4" rx="104.83" ry="18"/>
<text text-anchor="middle" x="6301" y="-69.2" font-family="Times,serif" font-size="14.00">InstallationsGPSService</text>
</g>
<!-- InstallationsGPSService&#45;&gt;GraphModule -->
<g id="edge16" class="edge">
<title>InstallationsGPSService&#45;&gt;GraphModule</title>
<path fill="none" stroke="black" d="M6335.97,-90.51C6335.97,-104.09 6335.97,-120.8 6335.97,-120.8 6335.97,-120.8 8100.78,-120.8 8100.78,-120.8 8100.78,-120.8 8100.78,-132.56 8100.78,-132.56"/>
<polygon fill="black" stroke="black" points="8097.28,-132.56 8100.78,-142.56 8104.28,-132.56 8097.28,-132.56"/>
</g>
<!-- InstallationsGPSService&#45;&gt;GraphModule -->
<g id="edge17" class="edge">
<title>InstallationsGPSService&#45;&gt;GraphModule</title>
<path fill="none" stroke="black" d="M6266.03,-90.6C6266.03,-104.51 6266.03,-121.8 6266.03,-121.8 6266.03,-121.8 8096.28,-121.8 8096.28,-121.8 8096.28,-121.8 8096.28,-132.56 8096.28,-132.56"/>
<polygon fill="black" stroke="black" points="8092.78,-132.56 8096.28,-142.56 8099.78,-132.56 8092.78,-132.56"/>
</g>
<!-- InstallationsService -->
<g id="node12" class="node">
<title>InstallationsService</title>
<ellipse fill="#fdb462" stroke="black" cx="6091" cy="-73.4" rx="87.4" ry="18"/>
<text text-anchor="middle" x="6091" y="-69.2" font-family="Times,serif" font-size="14.00">InstallationsService</text>
</g>
<!-- InstallationsService&#45;&gt;GraphModule -->
<g id="edge18" class="edge">
<title>InstallationsService&#45;&gt;GraphModule</title>
<path fill="none" stroke="black" d="M6120.07,-90.4C6120.07,-104.69 6120.07,-122.8 6120.07,-122.8 6120.07,-122.8 8091.78,-122.8 8091.78,-122.8 8091.78,-122.8 8091.78,-132.59 8091.78,-132.59"/>
<polygon fill="black" stroke="black" points="8088.28,-132.59 8091.78,-142.59 8095.28,-132.59 8088.28,-132.59"/>
</g>
<!-- InstallationsService&#45;&gt;GraphModule -->
<g id="edge19" class="edge">
<title>InstallationsService&#45;&gt;GraphModule</title>
<path fill="none" stroke="black" d="M6061.93,-90.52C6061.93,-105.47 6061.93,-124.8 6061.93,-124.8 6061.93,-124.8 8087.28,-124.8 8087.28,-124.8 8087.28,-124.8 8087.28,-132.28 8087.28,-132.28"/>
<polygon fill="black" stroke="black" points="8083.78,-132.28 8087.28,-142.28 8090.78,-132.28 8083.78,-132.28"/>
</g>
<!-- InstallationsStatsService -->
<g id="node13" class="node">
<title>InstallationsStatsService</title>
<ellipse fill="#fdb462" stroke="black" cx="5880" cy="-73.4" rx="105.96" ry="18"/>
<text text-anchor="middle" x="5880" y="-69.2" font-family="Times,serif" font-size="14.00">InstallationsStatsService</text>
</g>
<!-- InstallationsStatsService&#45;&gt;GraphModule -->
<g id="edge20" class="edge">
<title>InstallationsStatsService&#45;&gt;GraphModule</title>
<path fill="none" stroke="black" d="M5880,-91.43C5880,-106.59 5880,-125.8 5880,-125.8 5880,-125.8 8082.78,-125.8 8082.78,-125.8 8082.78,-125.8 8082.78,-132.38 8082.78,-132.38"/>
<polygon fill="black" stroke="black" points="8079.28,-132.38 8082.78,-142.38 8086.28,-132.38 8079.28,-132.38"/>
</g>
<!-- InstallationsSystemOverviewService -->
<g id="node14" class="node">
<title>InstallationsSystemOverviewService</title>
<ellipse fill="#fdb462" stroke="black" cx="5602" cy="-73.4" rx="153.92" ry="18"/>
<text text-anchor="middle" x="5602" y="-69.2" font-family="Times,serif" font-size="14.00">InstallationsSystemOverviewService</text>
</g>
<!-- InstallationsSystemOverviewService&#45;&gt;GraphModule -->
<g id="edge21" class="edge">
<title>InstallationsSystemOverviewService&#45;&gt;GraphModule</title>
<path fill="none" stroke="black" d="M5653.24,-90.59C5653.24,-106.2 5653.24,-126.8 5653.24,-126.8 5653.24,-126.8 8078.28,-126.8 8078.28,-126.8 8078.28,-126.8 8078.28,-132.51 8078.28,-132.51"/>
<polygon fill="black" stroke="black" points="8074.78,-132.51 8078.28,-142.51 8081.78,-132.51 8074.78,-132.51"/>
</g>
<!-- InstallationsSystemOverviewService&#45;&gt;GraphModule -->
<g id="edge22" class="edge">
<title>InstallationsSystemOverviewService&#45;&gt;GraphModule</title>
<path fill="none" stroke="black" d="M5550.76,-90.61C5550.76,-106.55 5550.76,-127.8 5550.76,-127.8 5550.76,-127.8 8073.78,-127.8 8073.78,-127.8 8073.78,-127.8 8073.78,-132.28 8073.78,-132.28"/>
<polygon fill="black" stroke="black" points="8070.28,-132.28 8073.78,-142.28 8077.28,-132.28 8070.28,-132.28"/>
</g>
<!-- InstallationsTagsService -->
<g id="node15" class="node">
<title>InstallationsTagsService</title>
<ellipse fill="#fdb462" stroke="black" cx="5324" cy="-73.4" rx="105.94" ry="18"/>
<text text-anchor="middle" x="5324" y="-69.2" font-family="Times,serif" font-size="14.00">InstallationsTagsService</text>
</g>
<!-- InstallationsTagsService&#45;&gt;GraphModule -->
<g id="edge23" class="edge">
<title>InstallationsTagsService&#45;&gt;GraphModule</title>
<path fill="none" stroke="black" d="M5359.32,-90.63C5359.32,-107.21 5359.32,-129.8 5359.32,-129.8 5359.32,-129.8 8069.28,-129.8 8069.28,-129.8 8069.28,-129.8 8069.28,-132.33 8069.28,-132.33"/>
<polygon fill="black" stroke="black" points="8065.78,-132.33 8069.28,-142.33 8072.78,-132.33 8065.78,-132.33"/>
</g>
<!-- InstallationsTagsService&#45;&gt;GraphModule -->
<g id="edge24" class="edge">
<title>InstallationsTagsService&#45;&gt;GraphModule</title>
<path fill="none" stroke="black" d="M5288.68,-90.62C5288.68,-107.53 5288.68,-130.8 5288.68,-130.8 5288.68,-130.8 8064.78,-130.8 8064.78,-130.8 8064.78,-130.8 8064.78,-132.58 8064.78,-132.58"/>
<polygon fill="black" stroke="black" points="8061.28,-132.58 8064.78,-142.58 8068.28,-132.58 8061.28,-132.58"/>
</g>
<!-- LoginDemoService -->
<g id="node16" class="node">
<title>LoginDemoService</title>
<ellipse fill="#fdb462" stroke="black" cx="5113" cy="-73.4" rx="86.82" ry="18"/>
<text text-anchor="middle" x="5113" y="-69.2" font-family="Times,serif" font-size="14.00">LoginDemoService</text>
</g>
<!-- LoginDemoService&#45;&gt;GraphModule -->
<g id="edge25" class="edge">
<title>LoginDemoService&#45;&gt;GraphModule</title>
<path fill="none" stroke="black" d="M5113,-91.79C5113,-122.72 5113,-181.8 5113,-181.8 5113,-181.8 8122.81,-181.8 8122.81,-181.8 8122.81,-181.8 8122.81,-181.51 8122.81,-181.51"/>
<polygon fill="black" stroke="black" points="8126.32,-188.85 8122.81,-178.85 8119.32,-188.85 8126.32,-188.85"/>
</g>
<!-- LoginService -->
<g id="node17" class="node">
<title>LoginService</title>
<ellipse fill="#fdb462" stroke="black" cx="4945" cy="-73.4" rx="63.12" ry="18"/>
<text text-anchor="middle" x="4945" y="-69.2" font-family="Times,serif" font-size="14.00">LoginService</text>
</g>
<!-- LoginService&#45;&gt;GraphModule -->
<g id="edge26" class="edge">
<title>LoginService&#45;&gt;GraphModule</title>
<path fill="none" stroke="black" d="M4976.53,-89.22C4976.53,-119.74 4976.53,-183.8 4976.53,-183.8 4976.53,-183.8 8127.22,-183.8 8127.22,-183.8 8127.22,-183.8 8127.22,-183.31 8127.22,-183.31"/>
<polygon fill="black" stroke="black" points="8130.72,-188.88 8127.22,-178.88 8123.72,-188.88 8130.72,-188.88"/>
</g>
<!-- LoginService&#45;&gt;GraphModule -->
<g id="edge27" class="edge">
<title>LoginService&#45;&gt;GraphModule</title>
<path fill="none" stroke="black" d="M4945,-91.46C4945,-123.23 4945,-185.8 4945,-185.8 4945,-185.8 8131.62,-185.8 8131.62,-185.8 8131.62,-185.8 8131.62,-185.08 8131.62,-185.08"/>
<polygon fill="black" stroke="black" points="8135.12,-188.65 8131.62,-178.65 8128.12,-188.65 8135.12,-188.65"/>
</g>
<!-- LoginService&#45;&gt;GraphModule -->
<g id="edge28" class="edge">
<title>LoginService&#45;&gt;GraphModule</title>
<path fill="none" stroke="black" d="M4913.47,-89.31C4913.47,-120.74 4913.47,-187.8 4913.47,-187.8 4913.47,-187.8 8136.02,-187.8 8136.02,-187.8 8136.02,-187.8 8136.02,-186.91 8136.02,-186.91"/>
<polygon fill="black" stroke="black" points="8139.52,-188.89 8136.02,-178.89 8132.52,-188.89 8139.52,-188.89"/>
</g>
<!-- LogoutService -->
<g id="node18" class="node">
<title>LogoutService</title>
<ellipse fill="#fdb462" stroke="black" cx="4796" cy="-73.4" rx="67.78" ry="18"/>
<text text-anchor="middle" x="4796" y="-69.2" font-family="Times,serif" font-size="14.00">LogoutService</text>
</g>
<!-- LogoutService&#45;&gt;GraphModule -->
<g id="edge29" class="edge">
<title>LogoutService&#45;&gt;GraphModule</title>
<path fill="none" stroke="black" d="M4818.63,-90.51C4818.63,-123.52 4818.63,-192.8 4818.63,-192.8 4818.63,-192.8 8065.57,-192.8 8065.57,-192.8 8065.57,-192.8 8065.57,-188.96 8065.57,-188.96"/>
<polygon fill="black" stroke="black" points="8069.07,-188.96 8065.57,-178.96 8062.07,-188.96 8069.07,-188.96"/>
</g>
<!-- LogoutService&#45;&gt;GraphModule -->
<g id="edge30" class="edge">
<title>LogoutService&#45;&gt;GraphModule</title>
<path fill="none" stroke="black" d="M4773.37,-90.54C4773.37,-124 4773.37,-194.8 4773.37,-194.8 4773.37,-194.8 8069.98,-194.8 8069.98,-194.8 8069.98,-194.8 8069.98,-188.9 8069.98,-188.9"/>
<polygon fill="black" stroke="black" points="8073.48,-188.9 8069.98,-178.9 8066.48,-188.9 8073.48,-188.9"/>
</g>
<!-- WidgetBatteryExeternalService -->
<g id="node19" class="node">
<title>WidgetBatteryExeternalService</title>
<ellipse fill="#fdb462" stroke="black" cx="4576" cy="-73.4" rx="133.67" ry="18"/>
<text text-anchor="middle" x="4576" y="-69.2" font-family="Times,serif" font-size="14.00">WidgetBatteryExeternalService</text>
</g>
<!-- WidgetBatteryExeternalService&#45;&gt;GraphModule -->
<g id="edge31" class="edge">
<title>WidgetBatteryExeternalService&#45;&gt;GraphModule</title>
<path fill="none" stroke="black" d="M4642.92,-89.03C4642.92,-122.23 4642.92,-196.8 4642.92,-196.8 4642.92,-196.8 8074.38,-196.8 8074.38,-196.8 8074.38,-196.8 8074.38,-188.7 8074.38,-188.7"/>
<polygon fill="black" stroke="black" points="8077.88,-188.7 8074.38,-178.7 8070.88,-188.7 8077.88,-188.7"/>
</g>
<!-- WidgetBatteryExeternalService&#45;&gt;GraphModule -->
<g id="edge32" class="edge">
<title>WidgetBatteryExeternalService&#45;&gt;GraphModule</title>
<path fill="none" stroke="black" d="M4576,-91.63C4576,-126.41 4576,-198.8 4576,-198.8 4576,-198.8 8078.78,-198.8 8078.78,-198.8 8078.78,-198.8 8078.78,-188.8 8078.78,-188.8"/>
<polygon fill="black" stroke="black" points="8082.28,-188.8 8078.78,-178.8 8075.28,-188.81 8082.28,-188.8"/>
</g>
<!-- WidgetBatteryExeternalService&#45;&gt;GraphModule -->
<g id="edge33" class="edge">
<title>WidgetBatteryExeternalService&#45;&gt;GraphModule</title>
<path fill="none" stroke="black" d="M4509.08,-89.02C4509.08,-123.04 4509.08,-200.8 4509.08,-200.8 4509.08,-200.8 8083.19,-200.8 8083.19,-200.8 8083.19,-200.8 8083.19,-188.82 8083.19,-188.82"/>
<polygon fill="black" stroke="black" points="8086.69,-188.82 8083.19,-178.82 8079.69,-188.82 8086.69,-188.82"/>
</g>
<!-- WidgetBatteryMonitorService -->
<g id="node20" class="node">
<title>WidgetBatteryMonitorService</title>
<ellipse fill="#fdb462" stroke="black" cx="4296" cy="-73.4" rx="128.49" ry="18"/>
<text text-anchor="middle" x="4296" y="-69.2" font-family="Times,serif" font-size="14.00">WidgetBatteryMonitorService</text>
</g>
<!-- WidgetBatteryMonitorService&#45;&gt;GraphModule -->
<g id="edge34" class="edge">
<title>WidgetBatteryMonitorService&#45;&gt;GraphModule</title>
<path fill="none" stroke="black" d="M4338.83,-90.58C4338.83,-125.78 4338.83,-202.8 4338.83,-202.8 4338.83,-202.8 8087.59,-202.8 8087.59,-202.8 8087.59,-202.8 8087.59,-188.74 8087.59,-188.74"/>
<polygon fill="black" stroke="black" points="8091.09,-188.74 8087.59,-178.74 8084.09,-188.74 8091.09,-188.74"/>
</g>
<!-- WidgetBatteryMonitorService&#45;&gt;GraphModule -->
<g id="edge35" class="edge">
<title>WidgetBatteryMonitorService&#45;&gt;GraphModule</title>
<path fill="none" stroke="black" d="M4253.17,-90.58C4253.17,-126.2 4253.17,-204.8 4253.17,-204.8 4253.17,-204.8 8091.99,-204.8 8091.99,-204.8 8091.99,-204.8 8091.99,-188.83 8091.99,-188.83"/>
<polygon fill="black" stroke="black" points="8095.49,-188.83 8091.99,-178.83 8088.49,-188.83 8095.49,-188.83"/>
</g>
<!-- WidgetBatteryRelayService -->
<g id="node21" class="node">
<title>WidgetBatteryRelayService</title>
<ellipse fill="#fdb462" stroke="black" cx="4030" cy="-73.4" rx="119.23" ry="18"/>
<text text-anchor="middle" x="4030" y="-69.2" font-family="Times,serif" font-size="14.00">WidgetBatteryRelayService</text>
</g>
<!-- WidgetBatteryRelayService&#45;&gt;GraphModule -->
<g id="edge36" class="edge">
<title>WidgetBatteryRelayService&#45;&gt;GraphModule</title>
<path fill="none" stroke="black" d="M4069.79,-90.57C4069.79,-126.6 4069.79,-206.8 4069.79,-206.8 4069.79,-206.8 8096.4,-206.8 8096.4,-206.8 8096.4,-206.8 8096.4,-188.86 8096.4,-188.86"/>
<polygon fill="black" stroke="black" points="8099.9,-188.86 8096.4,-178.86 8092.9,-188.86 8099.9,-188.86"/>
</g>
<!-- WidgetBatteryRelayService&#45;&gt;GraphModule -->
<g id="edge37" class="edge">
<title>WidgetBatteryRelayService&#45;&gt;GraphModule</title>
<path fill="none" stroke="black" d="M3990.21,-90.55C3990.21,-126.98 3990.21,-208.8 3990.21,-208.8 3990.21,-208.8 8100.8,-208.8 8100.8,-208.8 8100.8,-208.8 8100.8,-188.82 8100.8,-188.82"/>
<polygon fill="black" stroke="black" points="8104.3,-188.82 8100.8,-178.82 8097.3,-188.82 8104.3,-188.82"/>
</g>
<!-- WidgetChargeRelayStateService -->
<g id="node22" class="node">
<title>WidgetChargeRelayStateService</title>
<ellipse fill="#fdb462" stroke="black" cx="3754" cy="-73.4" rx="138.28" ry="18"/>
<text text-anchor="middle" x="3754" y="-69.2" font-family="Times,serif" font-size="14.00">WidgetChargeRelayStateService</text>
</g>
<!-- WidgetChargeRelayStateService&#45;&gt;GraphModule -->
<g id="edge38" class="edge">
<title>WidgetChargeRelayStateService&#45;&gt;GraphModule</title>
<path fill="none" stroke="black" d="M3800.05,-90.52C3800.05,-127.36 3800.05,-210.8 3800.05,-210.8 3800.05,-210.8 8105.2,-210.8 8105.2,-210.8 8105.2,-210.8 8105.2,-188.72 8105.2,-188.72"/>
<polygon fill="black" stroke="black" points="8108.7,-188.72 8105.2,-178.72 8101.7,-188.72 8108.7,-188.72"/>
</g>
<!-- WidgetChargeRelayStateService&#45;&gt;GraphModule -->
<g id="edge39" class="edge">
<title>WidgetChargeRelayStateService&#45;&gt;GraphModule</title>
<path fill="none" stroke="black" d="M3707.95,-90.49C3707.95,-127.72 3707.95,-212.8 3707.95,-212.8 3707.95,-212.8 8109.6,-212.8 8109.6,-212.8 8109.6,-212.8 8109.6,-188.86 8109.6,-188.86"/>
<polygon fill="black" stroke="black" points="8113.11,-188.86 8109.6,-178.86 8106.11,-188.86 8113.11,-188.86"/>
</g>
<!-- WidgetESSBatteryService -->
<g id="node23" class="node">
<title>WidgetESSBatteryService</title>
<ellipse fill="#fdb462" stroke="black" cx="3484" cy="-73.4" rx="113.46" ry="18"/>
<text text-anchor="middle" x="3484" y="-69.2" font-family="Times,serif" font-size="14.00">WidgetESSBatteryService</text>
</g>
<!-- WidgetESSBatteryService&#45;&gt;GraphModule -->
<g id="edge40" class="edge">
<title>WidgetESSBatteryService&#45;&gt;GraphModule</title>
<path fill="none" stroke="black" d="M3484,-91.6C3484,-129.79 3484,-214.8 3484,-214.8 3484,-214.8 8114.01,-214.8 8114.01,-214.8 8114.01,-214.8 8114.01,-188.65 8114.01,-188.65"/>
<polygon fill="black" stroke="black" points="8117.51,-188.65 8114.01,-178.65 8110.51,-188.65 8117.51,-188.65"/>
</g>
<!-- WidgetFuelCellService -->
<g id="node24" class="node">
<title>WidgetFuelCellService</title>
<ellipse fill="#fdb462" stroke="black" cx="3251" cy="-73.4" rx="101.86" ry="18"/>
<text text-anchor="middle" x="3251" y="-69.2" font-family="Times,serif" font-size="14.00">WidgetFuelCellService</text>
</g>
<!-- WidgetFuelCellService&#45;&gt;GraphModule -->
<g id="edge41" class="edge">
<title>WidgetFuelCellService&#45;&gt;GraphModule</title>
<path fill="none" stroke="black" d="M3217.11,-90.41C3217.11,-128.4 3217.11,-216.8 3217.11,-216.8 3217.11,-216.8 8118.41,-216.8 8118.41,-216.8 8118.41,-216.8 8118.41,-188.69 8118.41,-188.69"/>
<polygon fill="black" stroke="black" points="8121.91,-188.69 8118.41,-178.69 8114.91,-188.69 8121.91,-188.69"/>
</g>
<!-- WidgetFuelCellService&#45;&gt;GraphModule -->
<g id="edge42" class="edge">
<title>WidgetFuelCellService&#45;&gt;GraphModule</title>
<path fill="none" stroke="black" d="M3284.89,-90.5C3284.89,-110.17 3284.89,-139.8 3284.89,-139.8 3284.89,-139.8 8033.63,-139.8 8033.63,-139.8 8033.63,-139.8 8033.63,-175.8 8033.63,-175.8 8033.63,-175.8 8045.58,-175.8 8045.58,-175.8"/>
<polygon fill="black" stroke="black" points="8045.58,-179.3 8055.58,-175.8 8045.58,-172.3 8045.58,-179.3"/>
</g>
<!-- WidgetVeBusStateService -->
<g id="node25" class="node">
<title>WidgetVeBusStateService</title>
<ellipse fill="#fdb462" stroke="black" cx="3017" cy="-73.4" rx="114.03" ry="18"/>
<text text-anchor="middle" x="3017" y="-69.2" font-family="Times,serif" font-size="14.00">WidgetVeBusStateService</text>
</g>
<!-- WidgetVeBusStateService&#45;&gt;GraphModule -->
<g id="edge43" class="edge">
<title>WidgetVeBusStateService&#45;&gt;GraphModule</title>
<path fill="none" stroke="black" d="M3055,-56.38C3055,-53.7 3055,-51.8 3055,-51.8 3055,-51.8 8049.7,-51.8 8049.7,-51.8 8049.7,-51.8 8049.7,-162.8 8049.7,-162.8 8049.7,-162.8 8050.32,-162.8 8050.32,-162.8"/>
<polygon fill="black" stroke="black" points="8045.82,-166.3 8055.82,-162.8 8045.82,-159.3 8045.82,-166.3"/>
</g>
<!-- WidgetVeBusStateService&#45;&gt;GraphModule -->
<g id="edge44" class="edge">
<title>WidgetVeBusStateService&#45;&gt;GraphModule</title>
<path fill="none" stroke="black" d="M2979,-56.4C2979,-51.19 2979,-46.8 2979,-46.8 2979,-46.8 8051.71,-46.8 8051.71,-46.8 8051.71,-46.8 8051.71,-165.8 8051.71,-165.8 8051.71,-165.8 8052.12,-165.8 8052.12,-165.8"/>
<polygon fill="black" stroke="black" points="8045.74,-169.3 8055.74,-165.8 8045.74,-162.3 8045.74,-169.3"/>
</g>
<!-- WidgetVeBusWarningsService -->
<g id="node26" class="node">
<title>WidgetVeBusWarningsService</title>
<ellipse fill="#fdb462" stroke="black" cx="2753" cy="-73.4" rx="132.5" ry="18"/>
<text text-anchor="middle" x="2753" y="-69.2" font-family="Times,serif" font-size="14.00">WidgetVeBusWarningsService</text>
</g>
<!-- WidgetVeBusWarningsService&#45;&gt;GraphModule -->
<g id="edge45" class="edge">
<title>WidgetVeBusWarningsService&#45;&gt;GraphModule</title>
<path fill="none" stroke="black" d="M2797.08,-56.31C2797.08,-49.3 2797.08,-42.8 2797.08,-42.8 2797.08,-42.8 8045.69,-42.8 8045.69,-42.8 8045.69,-42.8 8045.69,-155.8 8045.69,-155.8 8045.69,-155.8 8046.71,-155.8 8046.71,-155.8"/>
<polygon fill="black" stroke="black" points="8045.93,-159.3 8055.93,-155.8 8045.93,-152.3 8045.93,-159.3"/>
</g>
<!-- WidgetVeBusWarningsService&#45;&gt;GraphModule -->
<g id="edge46" class="edge">
<title>WidgetVeBusWarningsService&#45;&gt;GraphModule</title>
<path fill="none" stroke="black" d="M2708.92,-56.02C2708.92,-46.98 2708.92,-37.8 2708.92,-37.8 2708.92,-37.8 8047.7,-37.8 8047.7,-37.8 8047.7,-37.8 8047.7,-159.8 8047.7,-159.8 8047.7,-159.8 8048.51,-159.8 8048.51,-159.8"/>
<polygon fill="black" stroke="black" points="8045.86,-163.3 8055.86,-159.8 8045.86,-156.3 8045.86,-163.3"/>
</g>
<!-- WidgetsGPSService -->
<g id="node27" class="node">
<title>WidgetsGPSService</title>
<ellipse fill="#fdb462" stroke="black" cx="2513" cy="-73.4" rx="89.78" ry="18"/>
<text text-anchor="middle" x="2513" y="-69.2" font-family="Times,serif" font-size="14.00">WidgetsGPSService</text>
</g>
<!-- WidgetsGPSService&#45;&gt;GraphModule -->
<g id="edge47" class="edge">
<title>WidgetsGPSService&#45;&gt;GraphModule</title>
<path fill="none" stroke="black" d="M2542.96,-56.38C2542.96,-45.64 2542.96,-33.8 2542.96,-33.8 2542.96,-33.8 8041.67,-33.8 8041.67,-33.8 8041.67,-33.8 8041.67,-149.8 8041.67,-149.8 8041.67,-149.8 8045.89,-149.8 8045.89,-149.8"/>
<polygon fill="black" stroke="black" points="8045.89,-153.3 8055.89,-149.8 8045.89,-146.3 8045.89,-153.3"/>
</g>
<!-- WidgetsGPSService&#45;&gt;GraphModule -->
<g id="edge48" class="edge">
<title>WidgetsGPSService&#45;&gt;GraphModule</title>
<path fill="none" stroke="black" d="M2483.04,-56.28C2483.04,-43.71 2483.04,-28.8 2483.04,-28.8 2483.04,-28.8 8043.68,-28.8 8043.68,-28.8 8043.68,-28.8 8043.68,-152.8 8043.68,-152.8 8043.68,-152.8 8045.68,-152.8 8045.68,-152.8"/>
<polygon fill="black" stroke="black" points="8045.68,-156.3 8055.68,-152.8 8045.68,-149.3 8045.68,-156.3"/>
</g>
<!-- WidgetsGatewayRelayService -->
<g id="node28" class="node">
<title>WidgetsGatewayRelayService</title>
<ellipse fill="#fdb462" stroke="black" cx="2276" cy="-73.4" rx="129.04" ry="18"/>
<text text-anchor="middle" x="2276" y="-69.2" font-family="Times,serif" font-size="14.00">WidgetsGatewayRelayService</text>
</g>
<!-- WidgetsGatewayRelayService&#45;&gt;GraphModule -->
<g id="edge49" class="edge">
<title>WidgetsGatewayRelayService&#45;&gt;GraphModule</title>
<path fill="none" stroke="black" d="M2276,-55.3C2276,-41.49 2276,-24.8 2276,-24.8 2276,-24.8 8039.66,-24.8 8039.66,-24.8 8039.66,-24.8 8039.66,-146.8 8039.66,-146.8 8039.66,-146.8 8045.64,-146.8 8045.64,-146.8"/>
<polygon fill="black" stroke="black" points="8045.64,-150.3 8055.64,-146.8 8045.64,-143.3 8045.64,-150.3"/>
</g>
<!-- WidgetsGatewayRelayService&#45;&gt;GraphModule -->
<g id="edge50" class="edge">
<title>WidgetsGatewayRelayService&#45;&gt;GraphModule</title>
<path fill="none" stroke="black" d="M2276,-91.53C2276,-92.33 2276,-92.8 2276,-92.8 2276,-92.8 8198.79,-92.8 8198.79,-92.8 8198.79,-92.8 8198.79,-176.8 8198.79,-176.8 8198.79,-176.8 8160.05,-176.8 8160.05,-176.8"/>
<polygon fill="black" stroke="black" points="8160.05,-173.3 8150.05,-176.8 8160.05,-180.3 8160.05,-173.3"/>
</g>
<!-- WidgetsGatewayRelayTwoService -->
<g id="node29" class="node">
<title>WidgetsGatewayRelayTwoService</title>
<ellipse fill="#fdb462" stroke="black" cx="1982" cy="-73.4" rx="146.94" ry="18"/>
<text text-anchor="middle" x="1982" y="-69.2" font-family="Times,serif" font-size="14.00">WidgetsGatewayRelayTwoService</text>
</g>
<!-- WidgetsGatewayRelayTwoService&#45;&gt;GraphModule -->
<g id="edge51" class="edge">
<title>WidgetsGatewayRelayTwoService&#45;&gt;GraphModule</title>
<path fill="none" stroke="black" d="M1933.09,-90.6C1933.09,-93.61 1933.09,-95.8 1933.09,-95.8 1933.09,-95.8 8192.42,-95.8 8192.42,-95.8 8192.42,-95.8 8192.42,-171.8 8192.42,-171.8 8192.42,-171.8 8160.07,-171.8 8160.07,-171.8"/>
<polygon fill="black" stroke="black" points="8160.07,-168.3 8150.07,-171.8 8160.07,-175.3 8160.07,-168.3"/>
</g>
<!-- WidgetsGatewayRelayTwoService&#45;&gt;GraphModule -->
<g id="edge52" class="edge">
<title>WidgetsGatewayRelayTwoService&#45;&gt;GraphModule</title>
<path fill="none" stroke="black" d="M2030.91,-90.67C2030.91,-93.11 2030.91,-94.8 2030.91,-94.8 2030.91,-94.8 8195.61,-94.8 8195.61,-94.8 8195.61,-94.8 8195.61,-173.8 8195.61,-173.8 8195.61,-173.8 8160.12,-173.8 8160.12,-173.8"/>
<polygon fill="black" stroke="black" points="8160.12,-170.3 8150.12,-173.8 8160.12,-177.3 8160.12,-170.3"/>
</g>
<!-- WidgetsGraphService -->
<g id="node30" class="node">
<title>WidgetsGraphService</title>
<ellipse fill="#fdb462" stroke="black" cx="1721" cy="-73.4" rx="96.12" ry="18"/>
<text text-anchor="middle" x="1721" y="-69.2" font-family="Times,serif" font-size="14.00">WidgetsGraphService</text>
</g>
<!-- WidgetsGraphService&#45;&gt;GraphModule -->
<g id="edge53" class="edge">
<title>WidgetsGraphService&#45;&gt;GraphModule</title>
<path fill="none" stroke="black" d="M1688.9,-90.61C1688.9,-94.65 1688.9,-97.8 1688.9,-97.8 1688.9,-97.8 8186.06,-97.8 8186.06,-97.8 8186.06,-97.8 8186.06,-166.8 8186.06,-166.8 8186.06,-166.8 8160.35,-166.8 8160.35,-166.8"/>
<polygon fill="black" stroke="black" points="8160.35,-163.3 8150.35,-166.8 8160.35,-170.3 8160.35,-163.3"/>
</g>
<!-- WidgetsGraphService&#45;&gt;GraphModule -->
<g id="edge54" class="edge">
<title>WidgetsGraphService&#45;&gt;GraphModule</title>
<path fill="none" stroke="black" d="M1753.1,-90.41C1753.1,-94.03 1753.1,-96.8 1753.1,-96.8 1753.1,-96.8 8189.24,-96.8 8189.24,-96.8 8189.24,-96.8 8189.24,-169.8 8189.24,-169.8 8189.24,-169.8 8160.16,-169.8 8160.16,-169.8"/>
<polygon fill="black" stroke="black" points="8160.16,-166.3 8150.16,-169.8 8160.16,-173.3 8160.16,-166.3"/>
</g>
<!-- WidgetsHoursofACService -->
<g id="node31" class="node">
<title>WidgetsHoursofACService</title>
<ellipse fill="#fdb462" stroke="black" cx="1489" cy="-73.4" rx="117.48" ry="18"/>
<text text-anchor="middle" x="1489" y="-69.2" font-family="Times,serif" font-size="14.00">WidgetsHoursofACService</text>
</g>
<!-- WidgetsHoursofACService&#45;&gt;GraphModule -->
<g id="edge55" class="edge">
<title>WidgetsHoursofACService&#45;&gt;GraphModule</title>
<path fill="none" stroke="black" d="M1449.92,-90.6C1449.92,-96.1 1449.92,-100.8 1449.92,-100.8 1449.92,-100.8 8179.69,-100.8 8179.69,-100.8 8179.69,-100.8 8179.69,-161.8 8179.69,-161.8 8179.69,-161.8 8160.26,-161.8 8160.26,-161.8"/>
<polygon fill="black" stroke="black" points="8160.26,-158.3 8150.26,-161.8 8160.26,-165.3 8160.26,-158.3"/>
</g>
<!-- WidgetsHoursofACService&#45;&gt;GraphModule -->
<g id="edge56" class="edge">
<title>WidgetsHoursofACService&#45;&gt;GraphModule</title>
<path fill="none" stroke="black" d="M1528.08,-90.57C1528.08,-95.61 1528.08,-99.8 1528.08,-99.8 1528.08,-99.8 8182.87,-99.8 8182.87,-99.8 8182.87,-99.8 8182.87,-164.8 8182.87,-164.8 8182.87,-164.8 8160.39,-164.8 8160.39,-164.8"/>
<polygon fill="black" stroke="black" points="8160.39,-161.3 8150.39,-164.8 8160.39,-168.3 8160.39,-161.3"/>
</g>
<!-- WidgetsInputService -->
<g id="node32" class="node">
<title>WidgetsInputService</title>
<ellipse fill="#fdb462" stroke="black" cx="1261" cy="-73.4" rx="92.62" ry="18"/>
<text text-anchor="middle" x="1261" y="-69.2" font-family="Times,serif" font-size="14.00">WidgetsInputService</text>
</g>
<!-- WidgetsInputService&#45;&gt;GraphModule -->
<g id="edge57" class="edge">
<title>WidgetsInputService&#45;&gt;GraphModule</title>
<path fill="none" stroke="black" d="M1261,-91.55C1261,-97.11 1261,-101.8 1261,-101.8 1261,-101.8 8176.5,-101.8 8176.5,-101.8 8176.5,-101.8 8176.5,-159.8 8176.5,-159.8 8176.5,-159.8 8160.38,-159.8 8160.38,-159.8"/>
<polygon fill="black" stroke="black" points="8160.38,-156.3 8150.38,-159.8 8160.38,-163.3 8160.38,-156.3"/>
</g>
<!-- WidgetsInverterChargeWarningsService -->
<g id="node33" class="node">
<title>WidgetsInverterChargeWarningsService</title>
<ellipse fill="#fdb462" stroke="black" cx="982" cy="-73.4" rx="168.33" ry="18"/>
<text text-anchor="middle" x="982" y="-69.2" font-family="Times,serif" font-size="14.00">WidgetsInverterChargeWarningsService</text>
</g>
<!-- WidgetsInverterChargeWarningsService&#45;&gt;GraphModule -->
<g id="edge58" class="edge">
<title>WidgetsInverterChargeWarningsService&#45;&gt;GraphModule</title>
<path fill="none" stroke="black" d="M925.95,-90.57C925.95,-97.9 925.95,-104.8 925.95,-104.8 925.95,-104.8 8170.14,-104.8 8170.14,-104.8 8170.14,-104.8 8170.14,-154.8 8170.14,-154.8 8170.14,-154.8 8160.36,-154.8 8160.36,-154.8"/>
<polygon fill="black" stroke="black" points="8160.36,-151.3 8150.36,-154.8 8160.36,-158.3 8160.36,-151.3"/>
</g>
<!-- WidgetsInverterChargeWarningsService&#45;&gt;GraphModule -->
<g id="edge59" class="edge">
<title>WidgetsInverterChargeWarningsService&#45;&gt;GraphModule</title>
<path fill="none" stroke="black" d="M1038.05,-90.5C1038.05,-96.97 1038.05,-102.8 1038.05,-102.8 1038.05,-102.8 8173.32,-102.8 8173.32,-102.8 8173.32,-102.8 8173.32,-157.8 8173.32,-157.8 8173.32,-157.8 8160.29,-157.8 8160.29,-157.8"/>
<polygon fill="black" stroke="black" points="8160.29,-154.3 8150.29,-157.8 8160.29,-161.3 8160.29,-154.3"/>
</g>
<!-- WidgetsInverterChargerStateService -->
<g id="node34" class="node">
<title>WidgetsInverterChargerStateService</title>
<ellipse fill="#fdb462" stroke="black" cx="643" cy="-73.4" rx="153.29" ry="18"/>
<text text-anchor="middle" x="643" y="-69.2" font-family="Times,serif" font-size="14.00">WidgetsInverterChargerStateService</text>
</g>
<!-- WidgetsInverterChargerStateService&#45;&gt;GraphModule -->
<g id="edge60" class="edge">
<title>WidgetsInverterChargerStateService&#45;&gt;GraphModule</title>
<path fill="none" stroke="black" d="M591.95,-90.49C591.95,-98.71 591.95,-106.8 591.95,-106.8 591.95,-106.8 8163.77,-106.8 8163.77,-106.8 8163.77,-106.8 8163.77,-149.8 8163.77,-149.8 8163.77,-149.8 8160.28,-149.8 8160.28,-149.8"/>
<polygon fill="black" stroke="black" points="8160.28,-146.3 8150.28,-149.8 8160.28,-153.3 8160.28,-146.3"/>
</g>
<!-- WidgetsInverterChargerStateService&#45;&gt;GraphModule -->
<g id="edge61" class="edge">
<title>WidgetsInverterChargerStateService&#45;&gt;GraphModule</title>
<path fill="none" stroke="black" d="M694.05,-90.74C694.05,-98.44 694.05,-105.8 694.05,-105.8 694.05,-105.8 8166.95,-105.8 8166.95,-105.8 8166.95,-105.8 8166.95,-152.8 8166.95,-152.8 8166.95,-152.8 8160.15,-152.8 8160.15,-152.8"/>
<polygon fill="black" stroke="black" points="8160.15,-149.3 8150.15,-152.8 8160.15,-156.3 8160.15,-149.3"/>
</g>
<!-- WidgetsInverterService -->
<g id="node35" class="node">
<title>WidgetsInverterService</title>
<ellipse fill="#fdb462" stroke="black" cx="369" cy="-73.4" rx="102.97" ry="18"/>
<text text-anchor="middle" x="369" y="-69.2" font-family="Times,serif" font-size="14.00">WidgetsInverterService</text>
</g>
<!-- WidgetsInverterService&#45;&gt;GraphModule -->
<g id="edge62" class="edge">
<title>WidgetsInverterService&#45;&gt;GraphModule</title>
<path fill="none" stroke="black" d="M369,-91.41C369,-99.73 369,-107.8 369,-107.8 369,-107.8 8160.58,-107.8 8160.58,-107.8 8160.58,-107.8 8160.58,-147.8 8160.58,-147.8 8160.58,-147.8 8159.55,-147.8 8159.55,-147.8"/>
<polygon fill="black" stroke="black" points="8160.29,-144.3 8150.29,-147.8 8160.29,-151.3 8160.29,-144.3"/>
</g>
<!-- WidgetsSolarStateService -->
<g id="node36" class="node">
<title>WidgetsSolarStateService</title>
<ellipse fill="#fdb462" stroke="black" cx="136" cy="-73.4" rx="111.74" ry="18"/>
<text text-anchor="middle" x="136" y="-69.2" font-family="Times,serif" font-size="14.00">WidgetsSolarStateService</text>
</g>
<!-- WidgetsSolarStateService&#45;&gt;GraphModule -->
<g id="edge63" class="edge">
<title>WidgetsSolarStateService&#45;&gt;GraphModule</title>
<path fill="none" stroke="black" d="M136,-91.6C136,-100.7 136,-109.8 136,-109.8 136,-109.8 8157.4,-109.8 8157.4,-109.8 8157.4,-109.8 8157.4,-145.8 8157.4,-145.8 8157.4,-145.8 8156.69,-145.8 8156.69,-145.8"/>
<polygon fill="black" stroke="black" points="8160.29,-142.3 8150.29,-145.8 8160.29,-149.3 8160.29,-142.3"/>
</g>
</g>
</svg>
